<?xml version="1.0" encoding="utf-8"?>
<!-- Generator: Adobe Illustrator 25.4.1, SVG Export Plug-In . SVG Version: 6.00 Build 0)  -->
<svg version="1.1" id="Layer_1" xmlns="http://www.w3.org/2000/svg" xmlns:xlink="http://www.w3.org/1999/xlink" x="0px" y="0px"
	 viewBox="0 0 500 493.3" style="enable-background:new 0 0 500 493.3;" xml:space="preserve">
<style type="text/css">
	.st0{fill:#1A1A1A;}
</style>
<g>
	<g id="vide_3_">
		<g>
			<path class="st0" d="M50.6,299.1c2.1,13.2,12.8,23.7,26.6,26.8c-3.4-6.1-5.9-13-7.3-20.1C63,304.8,56.4,302.5,50.6,299.1z"/>
		</g>
		<g>
			<path class="st0" d="M75.6,306.5c0.6,6.8,1.7,13.5,2.9,19.7c2.3,0.4,4.6,0.6,7,0.6c19.5,0,35.3-14.5,35.3-32.4
				c0-1.7-0.1-3.4-0.4-5C109.7,302.2,92.2,307.6,75.6,306.5z"/>
		</g>
		<g>
			<path class="st0" d="M81.4,262.2c-17.5,1.9-31.1,15.6-31.1,32.2c0,1.3,0.1,2.6,0.3,3.8c5.8,1.2,12.1,1.9,18.6,1.9
				C67.7,286.4,71,272.4,81.4,262.2z"/>
		</g>
		<g>
			<path class="st0" d="M85.5,262c-1.1,0-2.1,0.1-3.2,0.1c-6.2,10.7-7.8,24.3-7.2,38c15.9-0.7,32.3-4.7,45-11.8
				C117,273.3,102.7,262,85.5,262z"/>
		</g>
		<g>
			<path class="st0" d="M496.6,105.2l-44.9-18.9c-0.5-0.2-1-0.3-1.6-0.4l-32-3.4c-0.2,0-0.4,0-0.6,0c-2.8,0-5.2,2.1-5.5,4.9
				l-1.6,14.7c-3.4-5.5-7.1-10.8-11.1-15.9l7.9-14.3c3.4-6.2,4.2-13.4,2.3-20.2c-2-6.8-6.5-12.5-12.7-15.9L338,3.3
				c-3.9-2.2-8.4-3.3-12.8-3.3c-9.7,0-18.6,5.3-23.3,13.7l-6.5,11.7c-0.5-0.1-1.1-0.2-1.6-0.2c0.1-1.3-0.8-2.6-2.2-2.9
				c-6.3-1.3-12.5-2.5-19.2-2.5c-6.7,0-14.6,0.9-21.6,2.6c-1.2,0.3-2.1,1.4-2.1,2.6c-3.6,0.5-7.1,1.1-10.6,1.8l-7.3-13.2
				C226.2,5.3,217.3,0,207.6,0h0c-4.5,0-8.9,1.1-12.8,3.3l-58.9,32.5c-6.2,3.4-10.7,9.1-12.7,15.9c-2,6.8-1.2,14,2.3,20.2l11.7,21.1
				c-7.6,10.8-14,22.6-18.9,35.1l-68,7.5c-0.8,0.1-1.7,0.4-2.4,0.8L3.9,164.6c-1.8,1.1-2.7,3.2-2.5,5.2L4,194.3l-2.1,1.5
				c-0.1,0.1-0.2,0.1-0.2,0.2c-1.5,1-1.8,2.2-1.7,3.1c0.1,2.5,3.2,4.4,5,5.2c0,0,0.1,0,0.1,0.1l4.1,37.8c0.2,1.5,0.9,2.8,2,3.7
				c1,0.8,2.2,1.2,3.4,1.2c0.2,0,0.4,0,0.6,0l64.6-7.1l-25.4,22c-10,8.2-15.7,20.1-15.7,32.5c0,23.9,20.9,43.4,46.7,43.4
				c19.5,0,37.1-11.4,43.8-28.5l3.6-8.4c5.8,18.9,15,35.1,27.3,48.3L93,427c0,0-0.1,0.1-0.1,0.1c-0.2,0.2-0.4,0.5-0.6,0.8
				c-2.1,2.9-2.9,6.7-2.4,11.1c0.6,5,2.8,10.6,6.3,16.1c1.9,7.9,9.5,17.4,20.4,25.2c10.1,7.2,20.6,11.4,28.5,11.4
				c0.4,0,0.7,0,1.1-0.1c4.2,1.1,8.3,1.7,12,1.7c2.2,0,4.3-0.2,6.2-0.6c4.8-1,8.3-3.3,10.4-6.6c0,0,0-0.1,0.1-0.1c0,0,0,0,0,0
				c0,0,0,0,0-0.1l44.6-75.5l13.9-23.6c11.6,2.1,24.1,3.2,37.3,3.2c13.1,0,25.6-1.1,37.3-3.2l14,23.6l44.6,75.5c0,0,0,0,0,0.1
				c0,0,0,0,0,0c0,0,0,0.1,0.1,0.1c2,3.3,5.6,5.6,10.4,6.6c1.9,0.4,4,0.6,6.2,0.6c3.7,0,7.8-0.6,12-1.7c0.4,0,0.7,0.1,1.1,0.1
				c7.9,0,18.4-4.1,28.5-11.4c10.9-7.8,18.5-17.3,20.4-25.2c3.5-5.5,5.7-11.1,6.3-16.1c0.5-4.4-0.3-8.3-2.4-11.1
				c-0.2-0.3-0.4-0.5-0.6-0.8c0,0-0.1-0.1-0.1-0.1l-66.8-77.3c13.3-13.9,22.8-30.8,28.2-50.7l3.7,17.7c0.5,2.2,2.2,3.9,4.4,4.3
				l31.3,5.8c0.3,0.1,0.7,0.1,1,0.1c2.6,0,4.9-1.9,5.4-4.5l13-70.6c0.2-1.3,0-2.6-0.7-3.8l-17-29.3l31.3,3.4c0.2,0,0.4,0,0.6,0
				c1.3,0,2.5-0.4,3.5-1.2c1.1-0.9,1.9-2.2,2-3.7L500,110.9C500.2,108.5,498.9,106.2,496.6,105.2z M449.6,91.4l40.4,17.1l-34.1-3.7
				l-2.3-1.1C442.8,96.8,440,91.7,449.6,91.4z M396.6,91.4c4.8,6.2,9.1,12.8,13,19.6c0.8,1.4,1.6,2.8,2.3,4.3c0.8,1.5,1.5,3,2.3,4.5
				c0,0,0,0,0,0c2.9,6.1,5.5,12.4,7.7,19c-0.2-0.3-0.5-0.5-0.7-0.8c-1.1-1.1-2.2-2.1-3.5-3.3c-1.2-3.1-2.6-6.4-4-9.7c0,0,0,0,0,0
				c-0.7-1.6-1.5-3.3-2.2-5c-0.7-1.6-1.5-3.2-2.3-4.7c-3.7-7.5-8-15.2-13-23c-0.6-0.9-1.1-1.7-1.7-2.6c-0.6-0.8-1.2-1.7-1.7-2.5
				c-1-1.4-1.9-2.7-2.9-4.1c0-0.1-0.1-0.1-0.1-0.2c1.1,1.3,2.2,2.5,3.3,3.8c0.6,0.8,1.3,1.5,1.9,2.3C395.4,89.8,396,90.6,396.6,91.4
				z M306.8,16.4c3.8-7,11-10.9,18.5-10.9c3.4,0,6.9,0.8,10.2,2.6l33,18.2l0,0c2.8,1.4,5.9,3.1,9,5c6.8,4,13.6,8.6,17.4,12.6
				c-16.7-10.4-41.5-22.4-50-26.5c-6.5-3.1-13.8-6.7-20.8-6.4c-4.5,0.2-8,2.6-10.3,5.9c-4.1,6-7.7,10.5-10.4,5.8L306.8,16.4z
				 M388.5,61.5l-4.3,7.8c-18.6-17.9-41.4-31.4-66.8-38.9l3.4-6.2c1-1.9,3-3.1,5.2-3.1c1,0,2,0.2,2.9,0.7l57.3,31.6
				C389,55,390.1,58.6,388.5,61.5z M298,32.2c3.3,1.4,6.5,2.9,9.6,4.5c0.8,0.4,1.7,0.8,2.5,1.2c6.8,3.5,13.1,7.3,18.7,11.3
				c4.5,3.2,8.6,6.5,12.4,10c4.4,4,8.2,8.3,11.6,12.7c1.3,1.7,2.5,3.4,3.7,5.2c1,1.6,2,3.2,2.9,4.8c4.8,8.3,8.1,17.3,10,26.8
				c0,0,0,0,0,0c-11-3.9-23.1-7.2-36-9.8c-3.8-13.5-10.2-28.1-17.8-41.3c-0.9-1.6-1.9-3.2-2.8-4.7c-1-1.7-2.1-3.3-3.1-4.9
				c-3.8-5.8-7.8-11-11.8-15.6c-0.2-0.2-0.4-0.4-0.6-0.6C297.5,31.9,297.8,32.1,298,32.2z M130.3,69.3c-5.6-10.2-1.9-23,8.3-28.6
				l58.9-32.5c3.2-1.8,6.7-2.6,10.2-2.6c7.4,0,14.6,3.9,18.5,10.9l6.5,11.8c-3.5,0.8-7,1.8-10.5,2.9l-5.3-9.6c-2.1-3.8-6-5.9-10-5.9
				c-1.9,0-3.8,0.5-5.5,1.4L144,48.6c-5.5,3.1-7.5,10-4.5,15.5l8.4,15.2c-2.5,2.8-4.9,5.8-7.2,8.8L130.3,69.3z M151.7,74.9
				l-7.4-13.4c-1.6-2.9-0.5-6.5,2.3-8l57.3-31.6c0.9-0.5,1.8-0.7,2.9-0.7c2.2,0,4.2,1.2,5.2,3.1l4.8,8.7
				C192,41.5,169.9,56,152.2,74.6L151.7,74.9z M121,136.6C121,136.6,121,136.6,121,136.6c0.3-0.8,0.5-1.6,0.8-2.3
				c0.1-0.3,0.2-0.7,0.4-1c0.1-0.4,0.3-0.8,0.4-1.2c0.2-0.6,0.4-1.1,0.6-1.7c0.3-0.9,0.7-1.8,1.1-2.7c4.4-10.8,9.9-20.9,16.5-30.4
				c0.5-0.8,1.1-1.6,1.7-2.3c1-1.4,2-2.7,3-4.1c3.2-4.1,6.6-8.1,10.1-11.9c2.3-2.4,4.6-4.8,7-7c3.2-3,6.6-6,10.1-8.7
				c13.6-10.8,29-19.4,45.7-25.3c1.2-0.4,2.4-0.8,3.6-1.2c0.9-0.3,1.8-0.6,2.7-0.8c3.5-1.1,6.9-2,10.5-2.8c0.9-0.2,1.9-0.4,2.8-0.6
				c0.9-0.2,1.9-0.4,2.8-0.6c1.5-0.3,3-0.6,4.5-0.8c-1,1.1-2,2.2-3.1,3.5c-0.6,0.7-1.3,1.5-1.9,2.3c-0.6,0.8-1.2,1.5-1.9,2.3
				c-0.1,0.1-0.2,0.3-0.3,0.4c-1.3,1.7-2.6,3.5-3.9,5.3c-1.2,1.6-2.3,3.3-3.5,5.1c-10.1,15.2-19.5,33.7-24.2,49.1
				c-33.1,6.7-60.1,18-78.2,32.1c-0.8,0.6-1.6,1.3-2.4,1.9c-0.9,0.7-1.7,1.4-2.5,2.2c0,0,0,0,0,0c-1.1,1-2.2,2-3.2,3
				C120.6,137.8,120.8,137.2,121,136.6z M118.6,144.4c1.6-1.9,3.4-3.7,5.4-5.5c0,0,0,0,0,0c0.8-0.8,1.7-1.5,2.5-2.2
				c0.8-0.7,1.7-1.4,2.5-2.1c1.8-1.4,3.7-2.9,5.7-4.3c18.3-12.7,43.7-22.6,73.3-28.5c0.5-0.1,0.9-0.5,1.1-1
				c5-16.8,15.8-37.7,27.1-53.6c1.3-1.8,2.6-3.6,3.9-5.3c0.5-0.6,0.9-1.2,1.4-1.8c0.8-1,1.6-2,2.3-2.9c2.1-2.5,4.2-4.8,6.2-6.7
				c1.1-1,2.1-2,3.1-2.8c0.2-0.1,0.3-0.3,0.4-0.4c0.7-0.5,1.3-1.1,2-1.5c1.1-0.2,2.3-0.4,3.5-0.6c4.2-0.6,8.8-0.9,13.2-0.9
				c3.5,0,7.1,0.3,11.3,0.9c1.1,0.2,2.3,0.3,3.5,0.5c0.7,0.5,1.3,1.1,2,1.8c0,0,0.1,0.1,0.1,0.1c1,1,2.1,2,3.2,3.1
				c0.1,0.1,0.1,0.1,0.2,0.2c0.7,0.7,1.3,1.4,2,2.1c0.6,0.7,1.3,1.4,1.9,2.2c2.6,3,5.2,6.3,7.8,10c1.2,1.6,2.3,3.3,3.5,5.1
				c1,1.6,2.1,3.2,3.1,4.9c8.3,13.5,15.8,29.5,20.1,45.4c0.1,0.5,0.6,0.9,1.1,1c31.3,6.1,57.4,16.5,75.5,29.4
				c0.9,0.6,1.7,1.2,2.6,1.9c0.9,0.7,1.7,1.3,2.6,2c0,0,0,0,0,0c4.1,3.3,7.7,6.8,10.7,10.3c0.4,0.4,0.7,0.9,1.1,1.3
				c0.1,0.3,0.2,0.5,0.4,0.8c1.1,1.5,2.1,3.1,3.1,4.9c1.7,2.9,3.3,6,4.6,9.2c0.9,2.3,1.6,4.5,2.1,6.7c0.3,1.9,0.5,3.8,0.5,5.6
				c0,3.4-0.1,10.7-0.6,19.2c-0.2,2.9-0.4,5.9-0.7,8.9c0,0.5-0.1,1-0.2,1.5c-0.1,0.7-0.2,1.4-0.2,2.1c-0.1,1-0.2,2-0.4,3
				c0,0.2,0,0.3-0.1,0.5c-0.1,0.7-0.2,1.5-0.3,2.2c-0.1,0.9-0.3,1.8-0.5,2.7c0,0,0,0,0,0c-0.4,2.1-0.8,4.2-1.3,6.1
				c-0.1,0.4-0.5,0.6-0.8,0.5c-0.5-0.1-1-0.3-1.4-0.5c0,0,0,0,0,0c0,0,0-0.1,0-0.1c0,0,0,0,0,0c0.5-2,1-4.2,1.4-6.4c0,0,0,0,0,0
				c0.2-0.9,0.3-1.8,0.5-2.7c0.1-0.9,0.3-1.8,0.4-2.7c0.1-0.4,0.1-0.7,0.1-1.1c0.1-1.2,0.3-2.3,0.4-3.5c0.1-0.7,0.1-1.4,0.2-2.1
				c0-0.5,0.1-1,0.1-1.5c1-10.6,1.1-20.6,1.1-24.8c0-5.2-1.2-10.4-3.4-15.3c-1.2-2.7-2.7-5.3-4.4-7.9c-3.3-4.8-7.5-9.4-12.7-13.8
				c0,0,0,0,0,0c-0.8-0.7-1.7-1.4-2.5-2.1c-0.8-0.7-1.7-1.3-2.6-2c-11-8.2-25.1-15.3-41.5-21c1.9,2.6,1.4,6.2-0.4,8.3
				c-26.7-9.1-59.3-14.3-94.4-14.3c-36.9,0-71.5,5.8-100.1,16.6c-16.3,6.2-30,13.9-40.4,22.6c-0.9,0.7-1.7,1.5-2.5,2.2
				c-0.9,0.8-1.7,1.6-2.5,2.3c0,0,0,0,0,0c-4.5,4.3-8.1,8.9-10.9,13.6c-0.3,0.5-0.6,1-0.9,1.6c-3.5,6.3-2,34.4-0.4,46.2
				c0.1,0.5,0.1,0.9,0.2,1.3c0,0,0,0,0,0c0.2,1.1,0.3,2,0.5,2.7c0,0.2-0.1,0.6-0.2,1c-0.1,0.5-0.3,1.1-0.6,1.6
				c0,0.1-0.1,0.1-0.1,0.2l0,0c-0.5,0.9-1.2,1.7-2.2,2.2c-0.2,0.1-0.4,0.2-0.6,0.3c0,0,0,0,0,0c0,0,0,0,0,0c-0.1,0-0.2,0-0.4,0
				c0-0.1-0.1-0.1-0.1-0.2c-0.1-0.1-0.2-0.3-0.2-0.4c-0.2-0.4-0.4-1.3-0.6-2.7c0,0,0,0,0,0c-0.1-0.7-0.3-1.6-0.4-2.6
				c-0.8-5.3-1.7-13.9-2.3-23.5c-0.1-5.5-0.1-11.7,0-18.3c0.1-5.5,1.4-11,3.9-16.3c1.2-2.5,2.7-5,4.4-7.5
				C115.6,147.9,117,146.1,118.6,144.4z M50.8,141.2l65.3-7.2c-0.4,1.3-0.9,2.5-1.3,3.8l-29.1,21.4l-76.3,8.4L50.8,141.2z
				 M104.2,222.6l-8.7,8.9l0,0L104.2,222.6C104.2,222.6,104.2,222.6,104.2,222.6z M7.7,202.5c-0.5-0.2-1-0.4-1.5-0.6
				c-0.6-0.3-1-0.5-1.4-0.8c-1.4-0.9-2-1.7-2-2.1c0-0.3,0.4-0.6,0.6-0.7c0.1,0,0.1-0.1,0.2-0.1c0.2-0.2,0.5-0.4,0.8-0.6
				c0.8-0.5,1.6-0.9,2.4-1.1c0.1,0,0.2-0.1,0.3-0.1c0.2-0.1,0.4-0.1,0.6-0.2c0.7-0.2,1.4-0.4,2.1-0.5c1.1-0.2,2.3-0.3,3.4-0.3
				c0.3,0,0.6,0,0.9,0c0.8,0,1.7,0.1,2.5,0.2c0.1,0,0.1,0,0.2,0c-0.4,1.8-0.8,4.2-0.7,6.4c0,0.4,0,0.8,0,1.1c0,0,0,0.1,0,0.1
				c0,0,0,0,0,0c-1.3,0.5-3.3,0.5-5.5,0C9.6,203.1,8.7,202.9,7.7,202.5z M51.5,226.5c8.6,0,16.4-3.5,21.6-9c0.7-0.7,1.3-1.4,1.9-2.2
				c-0.5,0.8-1.1,1.6-1.7,2.4C67.9,224.5,59,229,49,229c-15.6,0-28.4-10.8-30.1-24.7c0-0.1,0-0.3,0-0.4c0-0.3-0.1-0.5-0.1-0.8
				c0,0,0,0,0-0.1c0-0.3,0-0.6,0-0.9c0,0,0,0,0,0c0-1.9,0.3-4.2,0.7-5.9c1.1,0.3,2.2,0.7,3.4,1.1c-0.1,0.9-0.1,1.8-0.1,2.7
				C22.7,214.6,35.6,226.5,51.5,226.5z M57.1,205.8c-6.8,0.6-14-0.6-20.6-4.7c-4.1-2.5-8.5-5-13.2-6.7c-1.1-0.4-2.2-0.7-3.4-1
				c-0.4-0.1-0.9-0.2-1.3-0.3c-0.5-0.1-0.9-0.2-1.4-0.3c-1.3-0.2-2.7-0.3-4-0.3c-0.7,0-1.4,0-2.1,0.1l9.2-6.6l3.4-2.4l1.4-1l5.7-4.1
				c0,0,0.1,0,0.1-0.1c3.9-2.7,10.2-5.9,17.9-5.5c1.6,0.1,3.1,0.3,4.6,0.5c0.8,0.2,1.7,0.3,2.5,0.5c8.6,2.2,15.9,7.5,19.8,14
				c0.2,0.3,0.3,0.6,0.5,0.9c0,0.1,0.1,0.1,0.1,0.2c0.1,0.1,0.1,0.2,0.2,0.4c1.2,2.4,1.9,4.9,2.1,7.4C73,201.5,65.3,205,57.1,205.8z
				 M14.7,241.6l-3.9-35.4c2,0.3,3.9,0.3,5.5-0.1c2.6,14.5,16.2,25.6,32.6,25.6c10.9,0,20.5-4.9,26.6-12.4
				c4.1-5.1,6.5-11.4,6.5-18.2c0-3.8-0.7-7.4-2.1-10.7c-1.3-3.5-3.4-6.8-6.3-9.6c-4.3-4.5-10.1-7.8-16.5-9.3
				c-2.6-0.7-5.4-1.1-8.2-1.3c-8.3-0.4-15.1,2.9-19.4,5.9c0,0-0.1,0.1-0.1,0.1l-6.6,4.7l-13.6,9.8l-2.3-21.4l0.2,1.4l1.5-0.2
				l76.6-8.4l7.3,67.1l0.3,2.6l0.1,1.2l1.2-0.1l-6.7,0.7L14.7,241.6z M89.6,238.9L89.6,238.9l5.2-0.6c1.3-0.1,2.4-0.7,3.3-1.6
				l9.3-9.6c0.7,0.6,1.5,1,2.3,1.3c0.3,0.1,0.7,0.1,1,0.1c0.5,0,1-0.1,1.5-0.3c0.7,2.7,1.5,5.4,2.3,8.1
				c-5.2,6.8-11.3,13.5-17.7,18.9c-3.6-0.9-7.5-1.4-11.4-1.4c-5.9,0-11.5,1.1-16.6,3c0,0,0,0,0,0L89.6,238.9z M124.2,307.3
				C124.2,307.3,124.2,307.3,124.2,307.3c-0.3,0.8-0.7,1.6-1.1,2.4c0,0,0,0,0,0c0,0,0,0,0,0.1c-0.1,0.1-0.1,0.2-0.2,0.4c0,0,0,0,0,0
				c-0.4,0.8-0.8,1.5-1.2,2.2c0,0,0,0.1-0.1,0.1c-0.5,0.8-0.9,1.5-1.4,2.2c0,0,0,0,0,0c-0.1,0.1-0.2,0.2-0.2,0.3c0,0,0,0,0,0.1
				c0,0,0,0,0,0c-0.5,0.7-1,1.4-1.6,2.1c0,0,0,0,0,0c-0.1,0.1-0.1,0.1-0.2,0.2c0,0,0,0,0,0c-0.5,0.6-1,1.1-1.5,1.6
				c-0.1,0.1-0.1,0.1-0.2,0.2c-0.1,0.1-0.2,0.2-0.3,0.3c0,0,0,0,0,0c-0.6,0.6-1.2,1.2-1.9,1.8c0,0,0,0,0,0c-0.1,0.1-0.1,0.1-0.2,0.2
				c-0.1,0.1-0.1,0.1-0.2,0.2c0,0,0,0,0,0c-0.2,0.2-0.4,0.3-0.6,0.5c-0.4,0.4-0.9,0.7-1.3,1.1c0,0,0,0,0,0c0,0,0,0,0,0
				c-0.1,0-0.1,0.1-0.2,0.1c0,0,0,0,0,0c-0.5,0.4-0.9,0.7-1.4,1c-0.3,0.2-0.5,0.4-0.8,0.5c-0.1,0.1-0.2,0.1-0.3,0.2
				c-0.1,0-0.1,0.1-0.2,0.1c0,0,0,0,0,0c0,0,0,0,0,0c-0.4,0.2-0.7,0.4-1.1,0.7c-0.8,0.5-1.7,1-2.6,1.4c-0.4,0.2-0.7,0.4-1.1,0.6
				c0,0,0,0,0,0c0,0,0,0,0,0c-0.1,0.1-0.3,0.1-0.4,0.2c0,0-0.1,0-0.1,0.1c0,0,0,0,0,0c-0.8,0.4-1.7,0.7-2.5,1.1c0,0,0,0,0,0
				c-0.1,0-0.2,0.1-0.4,0.1c0,0,0,0,0,0c-0.8,0.3-1.6,0.6-2.4,0.8c0,0,0,0,0,0c-0.2,0.1-0.3,0.1-0.5,0.2c0,0,0,0,0,0
				c-0.9,0.3-1.8,0.5-2.7,0.7c0,0,0,0,0,0c-0.2,0-0.3,0.1-0.5,0.1c0,0,0,0-0.1,0c0,0,0,0,0,0c-0.8,0.2-1.7,0.3-2.5,0.5c0,0,0,0,0,0
				c-0.1,0-0.2,0-0.3,0.1c0,0,0,0-0.1,0c0,0,0,0,0,0c-0.9,0.1-1.9,0.2-2.8,0.3c0,0,0,0,0,0c-0.2,0-0.4,0-0.7,0c0,0,0,0,0,0
				c-0.3,0-0.6,0-0.8,0c-0.7,0-1.4,0.1-2.1,0.1c0,0,0,0,0,0c0,0,0,0,0,0c0,0,0,0,0,0c0,0,0,0,0,0c0,0,0,0,0,0c-0.9,0-1.9,0-2.8-0.1
				c-0.1,0-0.2,0-0.3,0c-0.1,0-0.2,0-0.3,0c-0.9-0.1-1.8-0.2-2.7-0.3c0,0,0,0,0,0c-0.9-0.1-1.8-0.3-2.7-0.5c-0.1,0-0.2,0-0.3-0.1
				c-0.1,0-0.2-0.1-0.4-0.1c-0.9-0.2-1.7-0.4-2.6-0.6c0,0,0,0,0,0c-0.9-0.2-1.7-0.5-2.5-0.8c-0.1,0-0.2-0.1-0.3-0.1
				c-0.1,0-0.2-0.1-0.3-0.1c-0.1,0-0.2-0.1-0.3-0.1c-0.7-0.3-1.4-0.5-2.1-0.8c0,0,0,0,0,0c-0.8-0.4-1.6-0.7-2.3-1.1
				c-0.1-0.1-0.2-0.1-0.3-0.1c-0.1-0.1-0.2-0.1-0.3-0.2c-0.8-0.4-1.5-0.8-2.2-1.3c0,0,0,0,0,0c-1.1-0.7-2.2-1.4-3.2-2.2c0,0,0,0,0,0
				c-0.5-0.4-1.1-0.8-1.6-1.3c-0.2-0.1-0.3-0.3-0.5-0.4c-0.3-0.3-0.7-0.6-1-0.9c-0.2-0.2-0.4-0.4-0.6-0.6c-0.3-0.3-0.6-0.6-0.9-0.9
				c-0.2-0.2-0.4-0.4-0.6-0.6c-0.3-0.3-0.5-0.6-0.8-0.9c-0.2-0.2-0.4-0.4-0.5-0.6c-0.3-0.3-0.5-0.6-0.7-0.9
				c-0.2-0.2-0.3-0.4-0.5-0.7c-0.2-0.3-0.5-0.7-0.7-1c-0.2-0.2-0.3-0.4-0.5-0.6c-0.2-0.4-0.5-0.7-0.7-1.1c-0.1-0.2-0.2-0.4-0.4-0.6
				c-0.3-0.6-0.6-1.1-1-1.7c0,0,0,0,0,0c-0.6-1.1-1.1-2.2-1.6-3.4c-0.2-0.6-0.4-1.2-0.6-1.8c0,0,0,0,0,0c-0.3-0.8-0.5-1.6-0.7-2.4
				c-0.1-0.2-0.1-0.4-0.2-0.6c-0.2-0.8-0.4-1.6-0.5-2.5c0,0,0,0,0,0c0,0,0,0,0,0c-0.1-0.8-0.2-1.7-0.3-2.5c0-0.2,0-0.3,0-0.5
				c0-0.1,0-0.1,0-0.2c0-0.4-0.1-0.9-0.1-1.3c0-0.4,0-0.9,0-1.3c0,0,0,0,0,0c0,0,0,0,0,0c0-0.7,0-1.4,0.1-2c0,0,0,0,0,0
				c0-0.2,0-0.4,0.1-0.6c0,0,0,0,0,0c0-0.4,0.1-0.9,0.1-1.3c0,0,0,0,0,0c0-0.2,0.1-0.4,0.1-0.7c0,0,0-0.1,0-0.1c0,0,0,0,0,0
				c0.1-0.4,0.1-0.8,0.2-1.2c0,0,0,0,0,0c0-0.1,0-0.2,0.1-0.3c0-0.2,0.1-0.3,0.1-0.5c0,0,0,0,0,0c0.1-0.4,0.2-0.8,0.2-1.1
				c0,0,0,0,0,0c0-0.1,0-0.2,0.1-0.3c0-0.2,0.1-0.4,0.1-0.5c0,0,0,0,0,0c0.1-0.4,0.2-0.7,0.3-1.1c0,0,0,0,0,0
				c0.1-0.2,0.1-0.4,0.2-0.6c0-0.1,0-0.2,0.1-0.2c0,0,0,0,0,0c0.1-0.4,0.2-0.7,0.4-1.1c0.1-0.1,0.1-0.3,0.2-0.4
				c0-0.1,0.1-0.2,0.1-0.3c0,0,0,0,0,0c0.1-0.4,0.3-0.7,0.4-1.1c0,0,0,0,0,0c0.1-0.2,0.2-0.5,0.3-0.7c0,0,0,0,0,0
				c0.2-0.4,0.3-0.7,0.5-1.1c0,0,0,0,0,0c0,0,0,0,0,0c0.1-0.2,0.2-0.4,0.3-0.7c0,0,0,0,0,0c0.2-0.4,0.4-0.7,0.6-1.1c0,0,0,0,0,0
				c0.1-0.2,0.2-0.4,0.3-0.5c0,0,0-0.1,0.1-0.1c0,0,0,0,0,0c0.2-0.4,0.4-0.7,0.7-1.1c0,0,0,0,0,0c0.1-0.2,0.2-0.4,0.3-0.6
				c0,0,0,0,0,0c0.3-0.4,0.5-0.8,0.8-1.2c0,0,0,0,0,0c0.1-0.1,0.2-0.3,0.3-0.4c0,0,0,0,0,0c0.3-0.4,0.7-0.9,1-1.3c0,0,0,0,0,0
				c0.1-0.1,0.1-0.1,0.2-0.2c0,0,0,0,0,0c0.2-0.3,0.5-0.6,0.8-0.9c0.4-0.5,0.8-0.9,1.2-1.4c0,0,0,0,0,0c0.5-0.5,1-1,1.5-1.5
				c0,0,0,0,0,0c0.2-0.2,0.4-0.4,0.6-0.6c0.1-0.1,0.2-0.2,0.3-0.2c0,0,0,0,0,0c0.4-0.4,0.8-0.7,1.2-1.1c0,0,0,0,0,0
				c7.3-6,16.9-9.7,27.4-9.7c22.7,0,41.1,16.9,41.1,37.8C126.7,298.9,125.8,303.3,124.2,307.3z M134.3,283.2l-1.9,4.5l-1.8,4.3
				l-1.1,2.6l0,0l-0.2,0.5c0-0.2,0-2.9,0-4.6c0-0.1,0-0.2,0-0.3c0-0.6,0-1.1,0-1.1l0.5-0.9l2-4.1l2.1-4.2l0.9-1.9
				c0.4,0.6,0.8,1.2,1.2,1.7L134.3,283.2z M164.1,353.2l1.8-2.1l1.8-2.1l7.1-8.3v0c4-4.6,15.7-1.8,26.7,4l-14.7,19l-1,1.4
				c-2.4-1.3-4.8-2.4-7.1-3.4c-2.8-1.2-5.5-2.1-8.1-2.7c-3.9-1-7.4-1.4-10.5-1.1L164.1,353.2z M160.9,360.5L160.9,360.5
				c4.4-0.2,10.1,1,16.2,3.5c2.5,1,5.1,2.3,7.7,3.7l0.1,0.9l-0.3,0.4l-2.6,3.7l-0.6-0.2c-9-5-17.7-7.8-24.6-7.9L160.9,360.5z
				 M151.5,367.8c0.8-0.3,1.7-0.4,2.7-0.5l0,0l0,0c6.2-0.6,15.2,1.9,24.6,6.9l-44.6,57.7c-11.7-6.2-22.9-9.1-30.9-8.2L151.5,367.8z
				 M99.2,444.1c-3.2-7-3.2-11.5-2.4-13c0.1-0.2,0.2-0.3,0.3-0.5l3.1-3.6c1.8-0.6,3.8-0.9,6.1-0.9c7.1,0,16.6,2.9,26.5,8.1
				l-3.5,10.7c-7-3.6-13.9-5.7-19.5-5.7h0c-4.4,0-7.8,1.3-9.9,3.8C99.7,443.3,99.5,443.7,99.2,444.1z M155.6,483.2
				c-0.4,0.6-0.9,1.2-1.4,1.7c-0.2,0.1-0.3,0.2-0.5,0.3c0,0,0,0,0,0c-0.4,0.3-0.8,0.5-1.3,0.8c-0.8,0.4-1.8,0.6-2.8,0.8
				c-0.2,0-0.4,0-0.5,0.1c-0.6,0.1-1.2,0.1-1.9,0.1c-0.8,0-1.7-0.1-2.6-0.2c-0.1,0-0.3,0-0.4-0.1c-0.4,0-0.8-0.1-1.1-0.2
				c-2.2-0.4-4.6-1-7.1-2c-4.6-1.7-9.6-4.3-14.5-7.7c-0.4-0.3-0.8-0.5-1.2-0.8c-5.1-3.7-9.4-7.7-12.7-11.7c-0.4-0.5-0.8-0.9-1.1-1.4
				c-0.8-1-1.5-2.1-2.2-3.1c-0.6-1-1.1-1.9-1.6-2.8c0-0.1-0.1-0.1-0.1-0.2c-0.8-1.5-1.3-3-1.6-4.4c-0.1-0.2-0.1-0.4-0.1-0.7
				c-0.2-0.8-0.2-1.5-0.2-2.3c0-0.8,0.1-1.6,0.3-2.3c0,0,0,0,0,0c0,0,0,0,0-0.1c0.3-0.9,0.7-1.7,1.3-2.5c1.6-1.9,4.4-2.8,7.8-2.8
				c7.2,0,17.4,3.9,27,10.8C151.2,463,159.6,476.5,155.6,483.2z M170.3,483c-0.7,1-4.7,2.8-12.7,2.2c0.2-0.2,0.3-0.4,0.4-0.6
				c4.7-8-3.6-22.7-19.5-34.1c-2.2-1.6-4.4-3-6.7-4.3l3.5-10.7c3.1,1.8,6.3,3.8,9.4,6c1.3,0.9,2.5,1.8,3.7,2.7
				c0.8,0.7,1.7,1.3,2.5,2c0.2,0.2,0.5,0.4,0.7,0.6c0.6,0.5,1.1,1,1.7,1.5c0.3,0.2,0.5,0.5,0.8,0.7c0.5,0.5,1,0.9,1.5,1.4
				c0.2,0.2,0.5,0.5,0.7,0.7c0.5,0.5,1,0.9,1.4,1.4c0.2,0.2,0.4,0.4,0.6,0.7c0.5,0.5,0.9,1,1.4,1.4c0.2,0.2,0.4,0.4,0.6,0.6
				c0.5,0.5,0.9,1,1.3,1.5c0.2,0.2,0.3,0.4,0.5,0.6c0.4,0.5,0.9,1,1.3,1.6c0.1,0.2,0.2,0.3,0.4,0.5c0.4,0.6,0.9,1.1,1.3,1.7
				c0.1,0.1,0.2,0.2,0.3,0.4c0.4,0.6,0.8,1.2,1.2,1.7c0.1,0.1,0.1,0.2,0.2,0.3c0.4,0.6,0.8,1.2,1.2,1.8c0,0.1,0.1,0.1,0.1,0.2
				c0.4,0.6,0.8,1.3,1.1,1.9c0,0,0,0,0,0.1c0.4,0.6,0.7,1.3,1,1.9c0,0,0,0,0,0c0.3,0.7,0.6,1.3,0.9,1.9c0,0,0,0,0,0.1
				c0.8,1.9,1.3,3.7,1.6,5.4c0,0.2,0.1,0.4,0.1,0.6c0,0.1,0,0.2,0,0.3c0,0.5,0.1,1.1,0.1,1.6L170.3,483z M176.8,440.2l11.3-15.5
				c0.2,0.3,0.5,0.7,0.7,1C184.9,430.6,180.9,435.5,176.8,440.2z M190.7,423.4c-0.5-0.6-0.9-1.3-1.4-1.9l-1.1-1.5l-15.8,21.7
				l0.7,0.8c0.3,0.4,0.6,0.7,0.9,1.1c-3.4,3.9-6.9,7.7-10.2,11.3c-4.6-5.4-10.5-10.7-17.3-15.6v0c-2.3-1.6-4.6-3.1-6.8-4.5
				c-1-0.6-1.9-1.1-2.9-1.7l44.6-57.6c2.5,1.4,5,3.1,7.5,4.9c8.6,6.2,15,13.5,18.8,20.3C202.4,408.1,196.7,415.8,190.7,423.4z
				 M209.3,398.1c-4.2-7-10.8-14.2-18.9-20c-2-1.4-4-2.7-6-4l2.7-3.8l0.7-1c2,1.2,4,2.5,6,4c0.8,0.6,1.6,1.2,2.4,1.8
				c7.3,5.6,13.1,11.8,16.7,17.6C211.7,394.5,210.5,396.3,209.3,398.1z M221.5,378.4c-0.5,0.8-0.9,1.7-1.4,2.5
				c-0.5,0.8-1,1.7-1.5,2.5c-1.3,2.2-2.7,4.5-4.2,6.8c-2.5-3.8-5.8-7.7-9.7-11.4c-2.2-2.1-4.7-4.2-7.3-6.2c-0.7-0.5-1.3-1-2-1.5
				c-2.4-1.7-4.8-3.2-7.1-4.6l1-1.3l14.8-19.1c2.2,1.3,4.4,2.6,6.4,4.1c6.6,4.8,12.9,11,16.8,16.9
				C225.7,370.6,223.7,374.4,221.5,378.4z M313.9,385.7l-1.5-2.5l0,0l-1.4-2.4l0,0c0-0.1-0.1-0.1-0.1-0.2
				c-3.6-6.7,7.8-21.4,20.4-30.5c2-1.5,4.2-2.8,6.4-4.1l14.9,19.3l0.8,1c-2.4,1.4-4.8,2.9-7.1,4.6c-0.9,0.7-1.9,1.4-2.8,2.1
				c-0.1,0-0.1,0.1-0.2,0.1c-2.3,1.8-4.5,3.7-6.5,5.6c-7.6,7.3-12.7,15-14.4,21.4L313.9,385.7z M357.1,340.9
				c-3.1,0.7-6.4,1.9-9.8,3.4c-0.7,0.3-1,1.1-0.7,1.8c0.2,0.5,0.7,0.8,1.3,0.8c0.2,0,0.4,0,0.6-0.1c3.9-1.7,7.6-3,11-3.6
				c1.5-0.1,2.6-0.2,3.6-0.1c-1.3,0.1-2.3,0.4-3.4,0.6c0,0,0,0,0,0c-3.2,0.7-6.8,1.9-10.3,3.5c-0.7,0.3-1,1.1-0.7,1.8
				c0.2,0.5,0.7,0.8,1.3,0.8c0.2,0,0.4,0,0.6-0.1c4-1.8,7.9-3.1,11.4-3.7c1.7-0.1,2.9-0.2,3.8,0c-1.1,0.1-2.2,0.3-3.3,0.6
				c-3.3,0.7-6.8,1.9-10.4,3.5c-0.7,0.3-1,1.1-0.7,1.8c0.2,0.5,0.7,0.8,1.3,0.8c0.2,0,0.4,0,0.6-0.1c4-1.8,7.9-3.1,11.4-3.7
				c0.8-0.1,2.7-0.2,3.2,0c-4.1,0.5-8.9,2-13.7,4.1c-0.7,0.3-1,1.1-0.7,1.8c0.2,0.5,0.7,0.8,1.3,0.8c0.2,0,0.4,0,0.6-0.1
				c4.2-1.9,8.3-3.2,11.9-3.8c0.7,0.7,1.3,1.5,2,2.2c0.6,0.7,1.2,1.4,1.8,2.1c0,0,0,0,0,0.1c0.6,0.7,1.2,1.3,1.7,2
				c0.1,0.1,0.2,0.2,0.2,0.3c-0.3,0.1-0.5,0.1-0.8,0.2c-2.3,0.5-4.8,1.3-7.3,2.2c-0.1,0-0.2,0.1-0.3,0.1c-2.8,1.1-5.8,2.4-8.7,4
				L355,364l-14.9-19.2c5.2-2.8,10.6-4.8,15.2-5.8c0.5,0.5,0.9,1,1.4,1.5c1-0.2,3.1-0.3,4.4-0.3c-0.1,0-0.3,0-0.4,0.1
				c-1,0.1-2,0.3-3.1,0.6C357.4,340.8,357.2,340.9,357.1,340.9C357.1,340.9,357.1,340.9,357.1,340.9z M325.5,399.6
				c2.4-7.2,9.5-16.3,19.6-24.1c0.9-0.7,1.9-1.5,2.9-2.2c2-1.4,4-2.7,6-4l0.8,1.2l2.5,3.6c-2,1.2-4,2.5-6,4
				c-11,7.9-19.3,18.5-22.5,27.6L325.5,399.6z M346.8,441.4c0-4.6,2.4-10.6,6.8-16.7l12.4,17c-4.8,6-7.8,12.1-8.8,17.3L346.8,441.4z
				 M366.7,475.2l-7.3-12.3c-0.1-5.4,3.2-12.9,9.2-20.4l0.7-0.8L353.6,420l-1.1,1.5c-4.3,5.6-7,11.2-8,16l-14.4-24.3
				c0-8.5,8.2-22.4,22.8-32.8c2.5-1.8,5-3.4,7.5-4.9l44.6,57.6c-3.2,1.8-6.5,3.9-9.7,6.2C379.6,450.7,368.9,464.5,366.7,475.2z
				 M371.4,483l-2.4-4c-0.1-9.9,11-25.3,28-37.5c0.8-0.6,1.5-1.1,2.3-1.6c0.2-0.2,0.4-0.3,0.7-0.4c0.6-0.4,1.2-0.8,1.8-1.2
				c0.2-0.1,0.4-0.3,0.6-0.4c0.8-0.5,1.5-1,2.3-1.4c0.1-0.1,0.3-0.1,0.4-0.2c0.4-0.3,0.9-0.5,1.3-0.7l3.5,10.7
				c-2.2,1.3-4.5,2.7-6.7,4.3c-15.8,11.4-24.2,26-19.5,34.1c0.1,0.2,0.3,0.4,0.4,0.6C376,485.8,372.1,484.1,371.4,483z M441,451.8
				c0,0.2-0.1,0.4-0.1,0.7c-0.3,1.4-0.9,2.9-1.6,4.4c0,0.1-0.1,0.1-0.1,0.2c-0.5,0.9-1,1.9-1.6,2.8c-0.6,1-1.4,2.1-2.2,3.1
				c-0.4,0.5-0.7,0.9-1.1,1.4c-3.3,4-7.6,8-12.7,11.7c-0.4,0.3-0.8,0.5-1.1,0.8c-5,3.4-9.9,6-14.5,7.7c-2.5,0.9-4.9,1.6-7.1,2
				c-0.4,0.1-0.8,0.1-1.1,0.2c-0.1,0-0.3,0-0.4,0.1c-0.9,0.1-1.8,0.2-2.6,0.2c-0.7,0-1.3,0-1.9-0.1c-0.2,0-0.4,0-0.5-0.1
				c-1-0.2-2-0.4-2.8-0.8c-0.5-0.2-0.9-0.5-1.3-0.8c0,0,0,0,0,0c-0.2-0.1-0.3-0.2-0.5-0.3c-0.6-0.5-1.1-1-1.4-1.7
				c-4-6.7,4.5-20.2,18.7-30.4c9.6-6.9,19.8-10.8,27-10.8c3.4,0,6.2,0.9,7.8,2.8c0.6,0.7,1,1.5,1.3,2.5c0,0,0,0,0,0.1c0,0,0,0,0,0
				c0.2,0.7,0.3,1.5,0.3,2.3C441.2,450.3,441.1,451,441,451.8z M428.4,426.8c0.5-0.1,1-0.2,1.6-0.3c0.3,0,0.6-0.1,0.8-0.1
				c0.6-0.1,1.2-0.1,1.7-0.2c0.3,0,0.7-0.1,1-0.1c0.4,0,0.7,0,1.1,0c0.7,0,1.3,0,1.9,0c0.2,0,0.3,0,0.5,0c0.4,0,0.9,0.1,1.3,0.1
				c0.1,0,0.3,0,0.4,0.1c0.4,0.1,0.9,0.1,1.3,0.2c0,0,0.1,0,0.1,0c0.4,0.1,0.9,0.2,1.3,0.4l3.1,3.6c0.1,0.1,0.2,0.3,0.3,0.5
				c0.8,1.5,0.8,5.9-2.4,13c-0.2-0.4-0.5-0.8-0.8-1.1c-2.1-2.5-5.6-3.8-9.9-3.8c-5.6,0-12.5,2.1-19.5,5.7l-3.5-10.7
				c0.3-0.1,0.6-0.3,0.8-0.4c0.1-0.1,0.2-0.1,0.4-0.2c0.8-0.4,1.6-0.8,2.3-1.2c0.1-0.1,0.3-0.1,0.4-0.2c0.7-0.3,1.3-0.6,2-0.9
				c0.2-0.1,0.3-0.1,0.5-0.2c1.6-0.7,3.1-1.3,4.7-1.9c0.1,0,0.2-0.1,0.2-0.1c0.8-0.3,1.5-0.5,2.2-0.8c0,0,0,0,0.1,0
				c0.8-0.3,1.7-0.5,2.5-0.7c0.2-0.1,0.4-0.1,0.6-0.2c0.7-0.2,1.5-0.4,2.2-0.5C427.9,426.9,428.2,426.9,428.4,426.8z M426.5,424.5
				c-3.5,0.8-7.2,2-11,3.5c-1.3,0.5-2.6,1.1-3.9,1.7c-1.3,0.6-2.7,1.3-4,2l-44.6-57.7c6.3-3.4,12.4-5.6,17.7-6.5
				c15.8,19.1,31.2,40,42,57.7C423.9,424.9,425.2,424.7,426.5,424.5z M383.2,364.6c-0.1,0-0.2,0-0.3,0c-1.3,0.1-2.7,0.3-4.1,0.6
				c-0.1,0-0.2,0-0.3,0.1c0,0,0,0,0,0c-5.6,1.2-11.9,3.6-18.4,7.2l-0.6,0.2l-2.5-3.5l-0.4-0.6l0.1-0.9c3.1-1.7,6.2-3.2,9.2-4.3
				c3.9-1.5,7.7-2.5,10.9-2.8c0.8-0.1,1.6-0.1,2.4-0.2c0.1,0,0.2,0,0.3,0C380,360.9,382.8,364.1,383.2,364.6z M286.7,356.6
				c5.6,1.1,31.3,15.6-5,27.7c-3.6,0.2-7.2,0.3-10.9,0.3c-12.1,0-23.6-1-34.5-2.9c3.5-10.3-8.6-25.8-22.7-36
				c-15.1-10.8-35.2-17.5-42.9-8.6l-6.8,7.9c-1.3-1.4-2.6-2.9-3.9-4.4c-6-14.2-9.6-29.1-10.1-43.2c30,32.9,73.1,53.5,121,53.5
				c56.1,0,105.7-28.4,135.2-71.5l0.1,0.6C384.8,321,340.6,343.2,286.7,356.6z M409.1,264c0,0.1-0.1,0.1-0.1,0.2
				c-0.2,0.4-0.4,0.8-0.7,1.2c-0.6,1-1.2,2.1-1.8,3.1c-0.7,1.1-1.4,2.3-2.1,3.4c-28.1,44.2-77.5,73.6-133.6,73.6
				c-53,0-100-26.2-128.7-66.3c-1.3-1.8-2.5-3.6-3.7-5.4c0,0,0,0,0,0c0,0,0,0,0,0c0-0.1-0.1-0.1-0.1-0.2c-0.3-0.5-0.6-1-1-1.5
				c-1.4-2.2-2.8-4.5-4.1-6.8c-6.2-10.8-11.1-22.5-14.6-34.7c-1.1-3.9-2.1-7.8-2.9-11.8c0.1-0.2,0.1-0.3,0.2-0.5
				c0.3-0.9,0.4-1.6,0.5-2c0,0,0,0,0,0c0-0.2,0-0.3,0-0.4c0-0.2,0-0.3,0-0.5c-0.1-0.4-0.2-0.8-0.3-1.3c-0.2-0.9-0.4-2.1-0.5-3.4
				c0,0,0,0,0,0c0-0.1,0-0.2,0-0.2c-1.6-12.3-2.5-38.4,0.3-43.5c2.4-4.5,5.7-8.8,9.8-13c0,0,0,0,0,0c0.8-0.8,1.6-1.7,2.5-2.5
				c0.8-0.8,1.7-1.5,2.5-2.3c10.3-9,24.3-17,41-23.4c28.3-10.8,62.6-16.5,99.1-16.5c35.2,0,67.8,5.2,94.3,14.4
				c0.3,0.7,0.2,1.4-0.1,1.9c16.3,5.7,30.1,12.9,40.7,21.3c0.9,0.7,1.7,1.4,2.5,2.1c0.9,0.7,1.7,1.5,2.5,2.2c0,0,0,0,0,0
				c5,4.6,9,9.5,12,14.6c2.1,3.5,2.1,14.9,1.4,25.9c0,0.5-0.1,1-0.1,1.5c-0.1,0.7-0.1,1.4-0.2,2.2c-0.1,1.2-0.2,2.4-0.3,3.6
				c-0.2,2.5-0.5,4.9-0.7,7.1c-0.1,1-0.2,1.9-0.3,2.7c-0.1,1-0.3,1.9-0.4,2.7c0,0,0,0,0,0c-0.2,1.1-0.3,2-0.5,2.7
				c0,0.2-0.1,0.4-0.1,0.5c0,0-0.1,3.2,2.3,5.1c0.4,0.3,0.9,0.6,1.6,0.8c-0.1,0.7-0.3,1.4-0.4,2c-0.2,0.8-0.4,1.6-0.6,2.3
				c-0.2,0.8-0.4,1.5-0.6,2.3C420.4,240.5,415.5,252.7,409.1,264z M463.2,252.1l0.3-1.4l-13,70.6l-29.9-5.5l0.6-3.1l12.2-66.2
				l29.3,5.4L463.2,252.1z M462.5,249.2l-12-2.2l6.6-7L462.5,249.2z M483.1,216.6l-35.3-3.8l-3.6-0.4l0,0l1.4,0.1l0.2-1.7l0.2-2
				l10.9-101.2l37,4l0.5,0.1L483.1,216.6z"/>
		</g>
		<g>
			<path class="st0" d="M386.5,427.3c0.2,0,0.4,0,0.6,0c0.8,0,1.6-0.3,2.3-0.8c0.8-0.6,1.4-1.5,1.6-2.6c0.2-1-0.1-2.1-0.7-2.9l0,0
				c-0.2-0.2-1.1-1.4-6.4-8.7c0,0,0,0,0,0c0,0,0,0,0,0c-1.2-1.6-2.6-3.6-4.3-5.9l-1.9-2.6c-1.3-1.7-3.7-2.1-5.5-0.8
				c-1.7,1.3-2.1,3.7-0.8,5.5c0.1,0.1,12.6,17.1,12.7,17.2C384.5,426.6,385.5,427.1,386.5,427.3z M373.5,406.9L373.5,406.9
				c-0.4-0.5-0.3-1.3,0.3-1.6c0.5-0.4,1.3-0.3,1.6,0.2c0,0,0.8,1,1.9,2.6l3.5,4.8l-1.9,1.4C376.3,410.8,374,407.6,373.5,406.9z
				 M382.4,415.1l5.6,7.6l0,0c0.2,0.3,0.3,0.6,0.2,0.9c0,0.3-0.2,0.6-0.5,0.8c-0.3,0.2-0.6,0.3-0.9,0.2c-0.3,0-0.6-0.2-0.8-0.5l0,0
				c-0.4-0.6-2.9-4-5.6-7.6L382.4,415.1z"/>
		</g>
		<g>
			<path class="st0" d="M325.3,364.6c-1.7,0.4-3.3,1.4-4.5,2.8c-1.2,1.5-1.9,3.2-1.9,4.9c0,1.9,0.6,3.5,1.9,4.5
				c0.5,0.4,1.1,0.7,1.7,0.9c0.5,0.2,1.1,0.3,1.7,0.3c0.4,0,0.9,0,1.4-0.2c1.5-0.3,2.9-1.2,4-2.3c0.2-0.2,0.3-0.3,0.5-0.5
				c2.6-3.1,2.6-7.4,0-9.5C328.8,364.6,327.1,364.2,325.3,364.6z M328,373.4c-0.8,1-1.9,1.7-3,1.9c-1,0.2-1.9,0-2.5-0.5
				c-0.6-0.5-1-1.4-0.9-2.3c0-1.1,0.5-2.3,1.3-3.3c0.8-1,1.9-1.7,3-1.9c0.3-0.1,0.5-0.1,0.8-0.1c0.7,0,1.2,0.2,1.7,0.6
				C329.7,368.9,329.6,371.5,328,373.4z"/>
		</g>
		<g>
			<path class="st0" d="M352.8,430c-0.8,0.7-1,1.9-0.3,2.8c0.3,0.4,0.8,0.7,1.3,0.7c0.1,0,0.1,0,0.2,0c0.5,0,0.9-0.2,1.3-0.5
				c0.8-0.7,1-1.9,0.3-2.8C354.9,429.4,353.6,429.3,352.8,430z M354.6,432.1c-0.3,0.3-0.8,0.2-1.1-0.1c-0.3-0.3-0.2-0.8,0.1-1.1
				c0.1-0.1,0.3-0.2,0.5-0.2c0,0,0,0,0.1,0c0.2,0,0.4,0.1,0.5,0.3C355,431.3,354.9,431.8,354.6,432.1z"/>
		</g>
		<g>
			<path class="st0" d="M361.9,439.1c-0.3-0.4-0.8-0.7-1.3-0.7c-0.5,0-1,0.1-1.4,0.4c-0.4,0.3-0.7,0.8-0.7,1.3c0,0.5,0.1,1,0.4,1.4
				c0.3,0.4,0.8,0.7,1.3,0.7c0.1,0,0.1,0,0.2,0c0.5,0,0.9-0.2,1.3-0.5c0.4-0.3,0.7-0.8,0.7-1.3C362.4,440.1,362.2,439.5,361.9,439.1
				z M360.8,441c-0.2,0.1-0.4,0.2-0.6,0.2c-0.2,0-0.4-0.1-0.5-0.3c-0.1-0.2-0.2-0.4-0.2-0.6c0-0.2,0.1-0.4,0.3-0.5
				c0.2-0.1,0.4-0.2,0.6-0.2c0.2,0,0.4,0.1,0.5,0.3l0,0l-0.1,0.1l0.1-0.1c0.1,0.2,0.2,0.4,0.2,0.6C361.1,440.7,361,440.9,360.8,441z
				"/>
		</g>
		<g>
			<path class="st0" d="M438,450.2c0-0.3-0.1-0.5-0.2-0.8c0,0,0,0,0,0c0,0,0-0.1,0-0.1c-0.1-0.3-0.2-0.5-0.3-0.7
				c0-0.1-0.1-0.1-0.1-0.2c-0.1-0.2-0.3-0.5-0.5-0.7c-4-4.5-17.4-0.6-30.1,8.6c-0.7,0.5-1.4,1-2,1.5c-0.1,0-0.1,0.1-0.2,0.1
				c-0.6,0.5-1.2,1-1.8,1.5c-0.1,0.1-0.2,0.1-0.3,0.2c-0.6,0.5-1.1,1-1.7,1.5c-0.1,0.1-0.2,0.2-0.3,0.2c-0.5,0.5-1.1,1-1.6,1.5
				c-0.1,0.1-0.2,0.2-0.2,0.2c-0.5,0.5-1,1-1.5,1.5c-0.1,0.1-0.1,0.1-0.2,0.2c-0.5,0.5-1,1-1.4,1.5c0,0,0,0.1-0.1,0.1
				c-0.5,0.5-0.9,1-1.3,1.5c0,0-0.1,0.1-0.1,0.1c-0.4,0.5-0.8,1-1.2,1.5c0,0-0.1,0.1-0.1,0.1c0,0,0,0,0,0c2.2-1,4.3-2.3,6.5-3.9
				c-1.4,2-5.8,5-8,6.1c0,0,0,0,0,0c-0.1,0.1-0.1,0.2-0.2,0.3c-0.1,0.2-0.2,0.4-0.3,0.6c-0.1,0.1-0.1,0.2-0.2,0.4
				c-0.1,0.2-0.2,0.4-0.3,0.5c-0.1,0.1-0.1,0.2-0.2,0.4c-0.1,0.2-0.2,0.3-0.3,0.5c-0.1,0.1-0.1,0.2-0.2,0.4
				c-0.1,0.2-0.2,0.3-0.2,0.5c0,0.1-0.1,0.2-0.1,0.2c0,0,0,0,0,0c3.8-2.1,8.9-6.2,13.1-10.2c-2.2,3.6-10.1,10.3-13.9,13.1
				c0,0,0,0,0,0c0,0,0,0.1,0,0.1c-0.1,0.4-0.1,0.8-0.1,1.1c0,0.1,0,0.1,0,0.2c0,0.4,0,0.7,0.1,1c0,0,0,0,0,0.1c0,0,0,0.1,0,0.1
				c0,0.2,0.1,0.3,0.1,0.5c0,0.1,0,0.1,0.1,0.2c0.1,0.2,0.2,0.4,0.3,0.6c5.7-5.4,11.4-11.2,16.8-19.1c-3.7,6.9-6.7,11.5-11.1,17.3
				c-0.9,1.2-1.8,2.4-2.9,3.8c0,0.1-0.1,0.1-0.1,0.2c0,0,0,0,0,0c0,0,0,0,0,0c0.3,0.1,0.7,0.2,1.1,0.3c0,0,0.1,0,0.1,0
				c0.4,0.1,0.8,0.1,1.2,0.1c0,0,0.1,0,0.1,0c0,0,0,0,0,0c0.3-0.5,0.7-1,1.1-1.5c1.4-2,2.9-4.2,4.3-6.5c3.5-5.5,6.8-11.5,8.8-15.6
				c-1.2,3.8-3.2,8.5-5.4,13.2c-1.2,2.6-2.5,5.2-3.9,7.7c-0.3,0.6-0.6,1.2-0.9,1.8c-0.1,0.2-0.2,0.4-0.3,0.6c0,0,0,0,0,0
				c0,0,0.1,0,0.1,0c0.4-0.1,0.8-0.1,1.2-0.2c0,0,0.1,0,0.1,0c0.4-0.1,0.8-0.2,1.1-0.3c0.1,0,0.1,0,0.2,0c0,0,0,0,0,0
				c0.2-0.3,0.3-0.7,0.5-1c0.3-0.6,0.6-1.2,0.9-1.8c1.3-2.7,2.6-5.7,3.7-8.7c1.3-3.4,2.5-6.8,3.4-9.6c-0.4,2.8-1,5.6-1.7,8.5
				c-0.8,3.1-1.7,6-2.6,8.7c-0.2,0.6-0.4,1.2-0.6,1.8c-0.1,0.3-0.2,0.5-0.3,0.8c0,0.1-0.1,0.3-0.1,0.4c0,0,0,0,0,0
				c0.1,0,0.2-0.1,0.2-0.1c0.4-0.1,0.7-0.3,1.1-0.4c0.1-0.1,0.3-0.1,0.4-0.2c0.1,0,0.2-0.1,0.3-0.1c0.4-0.2,0.8-0.3,1.1-0.5
				c0,0,0,0,0,0c0,0,0,0,0,0c0,0,0,0,0-0.1c0.1-0.2,0.2-0.5,0.2-0.7c0.1-0.2,0.1-0.4,0.2-0.5c0.2-0.6,0.3-1.2,0.5-1.8
				c0.7-2.7,1.4-5.9,2-9c0.6-3.3,1-6.5,1.2-8.9c0.4,2.3,0.5,5,0.4,7.8c-0.1,3-0.4,6.1-0.8,8.8c-0.1,0.6-0.2,1.2-0.3,1.7
				c0,0.1,0,0.2-0.1,0.3c0,0.3-0.1,0.5-0.1,0.8c0,0.1,0,0.1,0,0.2c0,0,0,0,0,0c0,0,0.1-0.1,0.1-0.1c0.6-0.3,1.3-0.7,1.9-1
				c0.1,0,0.1-0.1,0.2-0.1c0,0,0,0,0,0c0-0.1,0-0.2,0-0.2c0.1-0.3,0.1-0.6,0.1-0.9c0-0.1,0-0.1,0-0.2c0.1-0.6,0.2-1.1,0.2-1.7
				c0.4-2.8,0.5-5.8,0.6-9c0-2.6,0-5.2-0.2-8c0.7,2,1.3,4.4,1.6,6.9c0.4,2.8,0.6,5.7,0.6,8.4c0,0.6,0,1.1,0,1.7c0,0,0,0,0,0.1
				c0,0.3,0,0.6,0,0.9c0,0.1,0,0.2,0,0.3c0,0,0,0,0,0c0,0,0.1,0,0.1,0c0.9-0.6,1.8-1.2,2.7-1.8c0,0,0,0,0,0c0,0,0,0,0,0
				c0-0.1,0-0.2,0-0.3c0-0.3,0-0.6,0-0.9c0-0.5-0.1-1-0.2-1.6c-0.3-2.4-0.9-5.2-1.6-7.8c-0.3-1-0.6-2-0.9-2.9
				c0.5,0.7,1.1,1.6,1.5,2.5c1.1,2.2,2,4.7,2.6,7.1c0.1,0.5,0.2,1,0.3,1.5c0,0,0,0,0,0c0,0.3,0.1,0.6,0.1,0.8c0,0.1,0,0.1,0,0.2
				c0,0,0,0,0,0c0.1-0.1,0.1-0.1,0.2-0.2c0.6-0.5,1.2-0.9,1.8-1.4c0,0,0,0,0,0c0,0,0,0,0,0c0-0.1,0-0.1-0.1-0.2
				c-0.1-0.2-0.2-0.5-0.2-0.7c0,0,0,0,0,0c-0.2-0.4-0.3-0.9-0.5-1.4c-0.8-2.1-1.9-4.3-2.8-6.2c1.3,1.3,2.9,3.2,4.1,5.2
				c0.2,0.4,0.5,0.8,0.7,1.2c0,0,0,0,0,0c0.1,0.2,0.2,0.4,0.3,0.7c0,0,0,0.1,0.1,0.1c0,0,0,0,0,0c0.1-0.1,0.1-0.1,0.2-0.2
				c0.6-0.5,1.1-0.9,1.7-1.4c0,0,0,0,0,0c0,0,0,0,0,0c0,0,0-0.1,0-0.1c-0.1-0.2-0.1-0.5-0.2-0.7c0,0,0-0.1,0-0.1
				c-0.2-0.4-0.4-0.8-0.7-1.2c-0.6-0.8-1.4-1.7-2.4-3c1.4,0.6,2.6,1.3,3.5,2c0.4,0.3,0.7,0.6,1,1c0,0,0.1,0.1,0.1,0.1
				c0.1,0.2,0.3,0.3,0.4,0.5c0,0,0,0,0,0.1c0,0,0,0,0,0c0.1-0.1,0.1-0.1,0.2-0.2c0.4-0.3,0.7-0.7,1-1c0.1-0.1,0.2-0.2,0.3-0.3
				c0.1-0.1,0.1-0.1,0.1-0.2c0.4-0.4,0.8-0.8,1.2-1.3c0.1-0.1,0.2-0.2,0.3-0.3c0.4-0.4,0.8-0.9,1.2-1.3c0.1-0.1,0.1-0.2,0.2-0.3
				c0.3-0.4,0.7-0.8,1-1.2c0-0.1,0.1-0.1,0.1-0.2c0.1-0.1,0.2-0.3,0.3-0.4c0.2-0.3,0.4-0.6,0.7-0.9c0.1-0.1,0.1-0.2,0.2-0.3
				c0.3-0.4,0.6-0.9,0.9-1.3c0,0,0-0.1,0.1-0.1c0.3-0.4,0.5-0.8,0.7-1.2c0-0.1,0.1-0.2,0.1-0.3c0-0.1,0.1-0.1,0.1-0.2
				c0.2-0.3,0.4-0.7,0.5-1c0-0.1,0.1-0.1,0.1-0.2c0.2-0.4,0.3-0.7,0.5-1.1c0-0.1,0-0.1,0.1-0.2c0.1-0.4,0.3-0.7,0.4-1.1
				c0-0.1,0-0.2,0.1-0.2c0.1-0.4,0.2-0.7,0.2-1.1c0,0,0,0,0,0c0,0,0-0.1,0-0.1c0-0.3,0.1-0.6,0.1-0.8c0-0.1,0-0.1,0-0.2
				c0-0.3,0-0.6,0-0.9C438,450.3,438,450.2,438,450.2z"/>
		</g>
		<g>
			<path class="st0" d="M180.3,342.9c3.9,0.5,8.3,1.9,12.9,3.9c0.2,0.1,0.4,0.1,0.6,0.1c0.5,0,1-0.3,1.3-0.8c0.3-0.7,0-1.5-0.7-1.8
				c-4.8-2.2-9.6-3.6-13.7-4.1c-0.8-0.1-1.4,0.4-1.5,1.2C179,342.1,179.5,342.8,180.3,342.9z"/>
		</g>
		<g>
			<path class="st0" d="M178.2,345.8c3.9,0.5,8.3,1.9,12.9,3.9c0.2,0.1,0.4,0.1,0.6,0.1c0.5,0,1-0.3,1.3-0.8c0.3-0.7,0-1.5-0.7-1.8
				c-4.8-2.2-9.6-3.6-13.7-4.1c-0.7-0.1-1.4,0.4-1.5,1.2C176.9,345,177.5,345.7,178.2,345.8z"/>
		</g>
		<g>
			<path class="st0" d="M175.6,348.8c3.9,0.5,8.3,1.9,12.9,3.9c0.2,0.1,0.4,0.1,0.6,0.1c0.5,0,1-0.3,1.3-0.8c0.3-0.7,0-1.5-0.7-1.8
				c-4.8-2.2-9.6-3.6-13.7-4.1c-0.8-0.1-1.4,0.4-1.5,1.2C174.3,348,174.8,348.7,175.6,348.8z"/>
		</g>
		<g>
			<path class="st0" d="M173.6,351.7c3.9,0.5,8.3,1.9,12.9,3.9c0.2,0.1,0.4,0.1,0.6,0.1c0.5,0,1-0.3,1.3-0.8c0.3-0.7,0-1.5-0.7-1.8
				c-4.8-2.2-9.6-3.6-13.7-4.1c-0.8-0.1-1.4,0.4-1.5,1.2C172.3,350.9,172.8,351.6,173.6,351.7z"/>
		</g>
		<g>
			<path class="st0" d="M169.6,403c-1.7-1.3-4.2-0.9-5.5,0.8l-1.9,2.6c-9.2,12.5-10.5,14.3-10.7,14.6l0,0c-1.3,1.7-0.9,4.2,0.8,5.5
				c0.7,0.5,1.5,0.8,2.3,0.8c0.2,0,0.4,0,0.6,0c1-0.2,2-0.7,2.6-1.6l6.3-8.6c5.1-6.9,6.1-8.3,6.3-8.6l0,0
				C171.7,406.8,171.3,404.3,169.6,403z M155.6,424.1L155.6,424.1c-0.2,0.3-0.5,0.4-0.8,0.5c-0.3,0-0.6,0-0.9-0.2
				c-0.5-0.4-0.6-1.1-0.3-1.6l5.6-7.6l1.9,1.4C156.7,422.5,155.8,423.8,155.6,424.1z M168.2,406.9l-5.4,7.3l-1.9-1.4l3.5-4.8
				c1.2-1.6,1.9-2.6,1.9-2.6v0c0.4-0.5,1.1-0.6,1.6-0.2C168.5,405.6,168.6,406.4,168.2,406.9z"/>
		</g>
		<g>
			<path class="st0" d="M211.6,365.6L211.6,365.6c-2.6,2.1-2.6,6.4,0,9.5c0.1,0.1,0.2,0.2,0.3,0.3c1.6,1.7,3.6,2.7,5.6,2.7
				c0.6,0,1.3-0.1,1.9-0.3c0.6-0.2,1.1-0.5,1.6-0.9c2.6-2.1,2.6-6.4,0-9.5C218.3,364.3,214.2,363.5,211.6,365.6z M218.8,369.2
				c1.6,1.9,1.7,4.5,0.4,5.6c-1.4,1.1-3.9,0.5-5.4-1.4c-1.6-1.9-1.7-4.5-0.4-5.6v0C214.7,366.6,217.2,367.3,218.8,369.2z"/>
		</g>
		<g>
			<path class="st0" d="M144.5,464.5c-0.5-0.5-1-1-1.5-1.5c-0.1-0.1-0.2-0.2-0.2-0.2c-0.5-0.5-1-1-1.6-1.5c-0.1-0.1-0.2-0.2-0.3-0.2
				c-0.6-0.5-1.1-1-1.7-1.5c-0.1-0.1-0.2-0.1-0.3-0.2c-0.6-0.5-1.2-1-1.8-1.5c-0.1,0-0.1-0.1-0.2-0.1c-0.7-0.5-1.3-1-2-1.5
				c-12.7-9.1-26.2-13-30.1-8.6c-0.2,0.2-0.3,0.4-0.5,0.7c0,0.1-0.1,0.1-0.1,0.2c-0.1,0.2-0.2,0.5-0.3,0.7c0,0,0,0.1,0,0.1
				c0,0,0,0,0,0c-0.1,0.2-0.1,0.5-0.2,0.8c0,0.1,0,0.1,0,0.2c0,0.3,0,0.6,0,0.9c0,0.1,0,0.1,0,0.2c0,0.3,0,0.6,0.1,0.8
				c0,0,0,0.1,0,0.1c0,0,0,0,0,0c0.1,0.3,0.1,0.7,0.2,1.1c0,0.1,0,0.2,0.1,0.2c0.1,0.4,0.2,0.7,0.4,1.1c0,0.1,0,0.1,0.1,0.2
				c0.1,0.3,0.3,0.7,0.5,1.1c0,0.1,0.1,0.1,0.1,0.2c0.2,0.3,0.3,0.7,0.5,1c0,0.1,0.1,0.1,0.1,0.2c0,0.1,0.1,0.2,0.1,0.3
				c0.2,0.4,0.5,0.8,0.7,1.2c0,0,0,0.1,0.1,0.1c0.3,0.4,0.6,0.9,0.9,1.3c0.1,0.1,0.1,0.2,0.2,0.3c0.2,0.3,0.4,0.6,0.7,0.9
				c0.1,0.1,0.2,0.3,0.3,0.4c0,0.1,0.1,0.1,0.1,0.2c0.3,0.4,0.7,0.8,1,1.2c0.1,0.1,0.1,0.2,0.2,0.3c0.4,0.4,0.8,0.9,1.2,1.3
				c0.1,0.1,0.2,0.2,0.3,0.3c0.4,0.4,0.8,0.8,1.2,1.3c0,0,0.1,0.1,0.1,0.1c0.1,0.1,0.2,0.2,0.4,0.3c0.3,0.3,0.7,0.7,1,1
				c0.1,0.1,0.1,0.1,0.2,0.2c0,0,0,0,0,0c0,0,0,0,0-0.1c0.1-0.2,0.2-0.4,0.4-0.5c0,0,0.1-0.1,0.1-0.1c0.3-0.3,0.6-0.7,1-1
				c0.9-0.8,2.1-1.4,3.5-2c-1.1,1.3-1.9,2.2-2.4,3c-0.3,0.4-0.5,0.8-0.7,1.2c0,0,0,0.1,0,0.1c-0.1,0.2-0.2,0.5-0.2,0.7
				c0,0,0,0.1,0,0.1c0,0,0,0,0,0c0,0,0,0,0,0c0.5,0.5,1.1,0.9,1.7,1.4c0.1,0.1,0.1,0.1,0.2,0.2c0,0,0,0,0,0c0,0,0-0.1,0.1-0.1
				c0.1-0.2,0.2-0.4,0.3-0.7c0,0,0,0,0,0c0.2-0.4,0.4-0.8,0.7-1.2c1.2-1.9,2.8-3.9,4.1-5.2c-0.9,1.9-1.9,4.1-2.8,6.2
				c-0.2,0.5-0.3,0.9-0.5,1.4c0,0,0,0,0,0c-0.1,0.2-0.2,0.5-0.2,0.7c0,0.1,0,0.1-0.1,0.2c0,0,0,0,0,0c0,0,0,0,0,0
				c0.6,0.5,1.2,0.9,1.8,1.4c0.1,0.1,0.1,0.1,0.2,0.2c0,0,0,0,0,0c0-0.1,0-0.1,0-0.2c0-0.3,0.1-0.5,0.1-0.8c0,0,0,0,0,0
				c0.1-0.5,0.2-1,0.3-1.5c0.6-2.4,1.4-4.9,2.6-7.1c0.5-0.9,1-1.8,1.5-2.5c-0.3,0.9-0.6,1.9-0.9,2.9c-0.7,2.6-1.3,5.4-1.6,7.8
				c-0.1,0.5-0.1,1.1-0.2,1.6v0c0,0.3,0,0.6,0,0.9c0,0.1,0,0.2,0,0.3c0,0,0,0,0,0c0,0,0,0,0,0c0.9,0.6,1.8,1.2,2.7,1.8
				c0,0,0,0,0.1,0c0,0,0,0,0,0c0-0.1,0-0.2,0-0.3c0-0.3,0-0.6,0-0.9c0,0,0,0,0-0.1c0-0.5,0-1.1,0-1.7c0-2.6,0.2-5.5,0.6-8.4
				c0.4-2.5,0.9-4.9,1.6-6.9c-0.1,2.8-0.2,5.4-0.2,8c0,3.1,0.2,6.1,0.6,9c0.1,0.6,0.2,1.2,0.2,1.7c0,0.1,0,0.1,0,0.2
				c0,0.3,0.1,0.6,0.1,0.9c0,0.1,0,0.2,0,0.2c0,0,0,0,0,0c0.1,0,0.1,0.1,0.1,0.1c0.6,0.4,1.3,0.7,1.9,1c0,0,0.1,0.1,0.1,0.1
				c0,0,0,0,0,0c0-0.1,0-0.1,0-0.2c0-0.3-0.1-0.5-0.1-0.8c0-0.1,0-0.2-0.1-0.3c-0.1-0.5-0.2-1.1-0.3-1.7c-0.4-2.7-0.7-5.8-0.8-8.8
				c-0.1-2.8,0-5.5,0.4-7.8c0.2,2.4,0.6,5.6,1.2,8.9c0.6,3.1,1.2,6.3,2,9c0.2,0.6,0.3,1.2,0.5,1.8c0.1,0.2,0.1,0.4,0.2,0.5
				c0.1,0.2,0.2,0.5,0.2,0.7c0,0,0,0,0,0.1c0,0,0,0,0,0c0,0,0,0,0,0c0.4,0.2,0.8,0.3,1.2,0.5c0.1,0,0.2,0.1,0.3,0.1
				c0.1,0.1,0.3,0.1,0.4,0.2c0.4,0.1,0.7,0.3,1.1,0.4c0.1,0,0.2,0.1,0.2,0.1c0,0,0,0,0,0c0-0.1-0.1-0.3-0.1-0.4
				c-0.1-0.3-0.2-0.5-0.3-0.8c-0.2-0.6-0.4-1.1-0.6-1.8c-0.9-2.7-1.8-5.6-2.6-8.7c-0.7-2.8-1.3-5.7-1.7-8.5c0.9,2.9,2,6.2,3.4,9.6
				c1.1,3,2.4,5.9,3.7,8.7c0.3,0.6,0.6,1.2,0.9,1.8c0.2,0.3,0.3,0.7,0.5,1c0,0,0,0,0,0c0.1,0,0.1,0,0.2,0c0.4,0.1,0.8,0.2,1.1,0.3
				c0,0,0.1,0,0.1,0c0.4,0.1,0.8,0.2,1.2,0.2c0,0,0.1,0,0.1,0c0,0,0,0,0,0c-0.1-0.2-0.2-0.4-0.3-0.6c-0.3-0.6-0.6-1.2-0.9-1.8
				c-1.3-2.5-2.6-5.1-3.9-7.7c-2.3-4.8-4.2-9.4-5.4-13.2c2,4.1,5.3,10.1,8.8,15.6c1.4,2.3,2.9,4.5,4.3,6.5c0.4,0.5,0.7,1,1.1,1.5
				c0,0,0,0,0,0c0,0,0.1,0,0.1,0c0.4,0,0.8-0.1,1.2-0.1c0.1,0,0.1,0,0.1,0c0.4-0.1,0.8-0.2,1.1-0.3c0,0,0,0,0,0c0,0,0,0,0,0
				c0-0.1-0.1-0.1-0.1-0.2c-1-1.3-2-2.6-2.9-3.8c-4.3-5.8-7.4-10.4-11.1-17.3c5.4,7.9,11.2,13.7,16.8,19.1c0.1-0.2,0.2-0.4,0.3-0.6
				c0-0.1,0-0.1,0.1-0.2c0.1-0.2,0.1-0.3,0.1-0.5c0,0,0-0.1,0-0.1c0,0,0,0,0-0.1c0.1-0.3,0.1-0.7,0.1-1c0-0.1,0-0.1,0-0.2
				c0-0.4,0-0.7-0.1-1.1c0,0,0-0.1,0-0.1c0,0,0,0,0,0c-3.8-2.7-11.7-9.4-13.9-13.1c4.1,4.1,9.3,8.1,13.1,10.2c0,0,0,0,0,0
				c0-0.1-0.1-0.2-0.1-0.2c-0.1-0.2-0.1-0.3-0.2-0.5c-0.1-0.1-0.1-0.2-0.2-0.4c-0.1-0.2-0.2-0.3-0.3-0.5c-0.1-0.1-0.1-0.2-0.2-0.4
				c-0.1-0.2-0.2-0.3-0.3-0.5c-0.1-0.1-0.1-0.2-0.2-0.4c-0.1-0.2-0.2-0.4-0.3-0.6c-0.1-0.1-0.1-0.2-0.2-0.3c0,0,0,0,0,0
				c-2.2-1-6.6-4.1-8-6.1c2.2,1.6,4.3,2.9,6.5,3.9c0,0,0,0,0,0c0,0-0.1-0.1-0.1-0.1c-0.4-0.5-0.8-1-1.2-1.5c0,0-0.1-0.1-0.1-0.1
				c-0.4-0.5-0.9-1-1.3-1.5c0,0,0-0.1-0.1-0.1c-0.5-0.5-0.9-1-1.4-1.5C144.6,464.6,144.6,464.5,144.5,464.5z"/>
		</g>
		<g>
			<path class="st0" d="M473.7,117.3c-8.4,0-15.3,6.8-15.3,15.3c0,8.4,6.8,15.3,15.3,15.3c0.8,0,1.6-0.1,2.4-0.2
				c7.3-1.2,12.8-7.5,12.8-15.1c0-2.6-0.7-5.1-1.9-7.3C484.6,120.5,479.5,117.3,473.7,117.3z M477.7,144.4c-1.3,0.4-2.6,0.7-4,0.7
				c-6.9,0-12.5-5.6-12.5-12.5c0-6.9,5.6-12.5,12.5-12.5c5.5,0,10.1,3.5,11.8,8.5c0.4,1.3,0.7,2.6,0.7,4.1
				C486.3,138,482.7,142.7,477.7,144.4z"/>
		</g>
		<g>
			<path class="st0" d="M471.3,157.4c-0.4-0.1-0.8-0.1-1.2-0.1c-5.3,0-9.7,4.3-9.7,9.7c0,2.7,1.1,5.1,2.8,6.8
				c1.7,1.8,4.2,2.8,6.8,2.8c5.3,0,9.7-4.3,9.7-9.7C479.8,162,476.1,158,471.3,157.4z M470.1,173.9c-2.3,0-4.2-1.1-5.5-2.8
				c-0.9-1.2-1.4-2.6-1.4-4.1c0-3.8,3.1-6.9,6.8-6.9c0,0,0,0,0.1,0c3.8,0,6.9,3.1,6.9,6.9S473.9,173.9,470.1,173.9z"/>
		</g>
		<g>
			<path class="st0" d="M439.2,311.8c5.3,0,9.7-4.3,9.7-9.7c0-5.3-4.3-9.7-9.7-9.7c-0.4,0-0.7,0-1.1,0.1c1,0.2,1.8,0.7,2.5,1.4
				c0.5,0.5,0.8,1.1,1.1,1.7c0.2,0.6,0.3,1.2,0.3,1.8c0,2.8-2.3,5.1-5.1,5.1c-1.8,0-3.4-1-4.3-2.4c-0.4-0.6-0.6-1.2-0.7-1.9
				c0-0.2-0.1-0.5-0.1-0.8c0-0.2,0-0.5,0.1-0.7c0.1-0.5,0.2-0.9,0.4-1.4c-1.2,1.2-2,2.7-2.4,4.3c-0.2,0.8-0.3,1.5-0.3,2.3
				C429.6,307.5,433.9,311.8,439.2,311.8z"/>
		</g>
		<g>
			<circle class="st0" cx="467.7" cy="193" r="6.5"/>
		</g>
		<g>
			<path class="st0" d="M440.3,284.6c1.1,0.9,2.5,1.4,4,1.4c3.6,0,6.5-2.9,6.5-6.5c0-2.4-1.3-4.5-3.2-5.6c-1-0.6-2.1-0.9-3.3-0.9
				c-3.6,0-6.5,2.9-6.5,6.5C437.8,281.6,438.7,283.4,440.3,284.6z"/>
		</g>
		<g>
			<path class="st0" d="M441.2,259.7c1.6,0,2.9-1.3,2.9-2.9c0-1.6-1.3-2.9-2.9-2.9s-2.9,1.3-2.9,2.9
				C438.3,258.3,439.6,259.7,441.2,259.7z"/>
		</g>
		<g>
			<path class="st0" d="M447.9,260.9c1.6,0,2.9-1.3,2.9-2.9c0-1.6-1.3-2.9-2.9-2.9s-2.9,1.3-2.9,2.9
				C444.9,259.6,446.3,260.9,447.9,260.9z"/>
		</g>
		<g>
			<path class="st0" d="M454.1,262c1.6,0,2.9-1.3,2.9-2.9c0-1.6-1.3-2.9-2.9-2.9s-2.9,1.3-2.9,2.9C451.2,260.7,452.5,262,454.1,262z
				"/>
		</g>
		<g>
			<path class="st0" d="M473.7,122.5c-0.9,0-1.7,0.1-2.5,0.3c0.2,0.1,0.4,0.3,0.6,0.4c0.2,0.1,0.4,0.3,0.5,0.5
				c0.9,0.9,1.4,2.2,1.4,3.5c0,2.8-2.3,5.1-5.1,5.1c-1.5,0-2.8-0.6-3.7-1.6c-0.2-0.2-0.3-0.3-0.4-0.5c-0.2-0.2-0.3-0.4-0.4-0.7
				c-0.3,0.9-0.4,1.9-0.4,2.9c0,5.5,4.5,10,10,10c2.2,0,4.2-0.7,5.8-1.9c2.5-1.8,4.2-4.8,4.2-8.2c0-0.1,0-0.2,0-0.4
				C483.6,126.8,479.1,122.5,473.7,122.5z"/>
		</g>
		<g>
			<path class="st0" d="M426.9,302.2c0,0.6,0.1,1.2,0.1,1.8c0.9,6,6,10.5,12.2,10.5c6.8,0,12.4-5.5,12.4-12.4
				c0-6.8-5.5-12.4-12.4-12.4c-0.9,0-1.8,0.1-2.7,0.3C431,291.4,426.9,296.3,426.9,302.2z M435.5,291.5c1.2-0.4,2.4-0.6,3.7-0.6
				c6.2,0,11.3,5,11.3,11.3s-5,11.3-11.3,11.3c-6.1,0-11-4.8-11.2-10.9c0-0.1,0-0.3,0-0.4C428,297.2,431.1,293.1,435.5,291.5z"/>
		</g>
		<g>
			<path class="st0" d="M470.1,161.3c-0.2,0-0.5,0-0.7,0.1c-2.8,0.4-5,2.7-5,5.6c0,1,0.3,2,0.8,2.9c1,1.7,2.8,2.8,4.9,2.8
				c3.1,0,5.7-2.5,5.7-5.7C475.8,163.8,473.2,161.3,470.1,161.3z M470.1,171.5c-2,0-3.6-1.2-4.3-3c-0.2-0.5-0.3-1-0.3-1.6
				c0-2.1,1.4-3.8,3.3-4.4c0.4-0.1,0.9-0.2,1.3-0.2c2.5,0,4.6,2.1,4.6,4.6S472.6,171.5,470.1,171.5z"/>
		</g>
		<g>
			<path class="st0" d="M420.2,218.3c-0.2-0.3-0.3-0.6-0.4-0.9c-0.3-1.1-0.3-2.1-0.3-2.1c0.1-0.5,0.2-1,0.3-1.7
				c0.1-0.6,0.2-1.4,0.3-2.1c0,0,0,0,0,0c0-0.2,0.1-0.4,0.1-0.6c0.1-0.7,0.2-1.4,0.3-2.2c0.1-0.9,0.2-1.8,0.3-2.7
				c0.3-2.6,0.6-5.6,0.9-8.7c0.1-1.2,0.2-2.4,0.3-3.7c0.1-0.7,0.1-1.4,0.1-2.2c0-0.5,0.1-1,0.1-1.5c0.5-10.1,0.4-19.9-1.5-23.1
				c-2.6-4.4-6.1-8.7-10.2-12.7c0,0,0,0,0,0c-0.8-0.8-1.7-1.6-2.5-2.3c-0.8-0.7-1.7-1.5-2.5-2.2c-26.8-22-76.2-36.3-134.6-36.3
				c-61.9,0-114.1,16.8-139.6,41.2c-0.9,0.8-1.7,1.7-2.5,2.5c-0.9,0.9-1.7,1.8-2.5,2.8c0,0,0,0,0,0c-2.4,2.9-4.5,5.8-6.2,8.9
				c-2.7,4.9-2.1,25.8-0.8,38.5c0,0,0,0,0,0c0.1,0.7,0.1,1.3,0.2,2c0.1,0.5,0.1,1.1,0.2,1.6c0.2,1.3,0.3,2.5,0.5,3.4
				c0,0.2,0.1,0.4,0.1,0.5c0,0,0,0,0,0c0.1,0.4,0.2,0.8,0.3,1.1c0,0,0.9,3.7-1.5,5.6c0.5,2.2,1,4.4,1.6,6.5
				c3.6,13.3,8.9,25.9,15.8,37.5c0.8,1.3,1.5,2.6,2.4,3.9c0.3,0.4,0.6,0.9,0.8,1.3c0,0.1,0.1,0.1,0.1,0.2l0,0c0,0,0,0,0,0
				c1.2,1.8,2.4,3.6,3.7,5.4c28.1,39.6,74.7,65.5,127.4,65.5c56.3,0,105.6-29.5,132.8-73.7c0.5-0.9,1.1-1.7,1.6-2.6
				c0.4-0.7,0.8-1.4,1.3-2.2c1.5-2.6,2.9-5.3,4.2-8c0-0.1,0.1-0.1,0.1-0.2c4.9-10,8.8-20.7,11.4-31.8c0.2-0.8,0.4-1.6,0.5-2.4
				c0,0,0-0.1,0-0.1c0,0-0.1,0-0.1-0.1C421.4,220.1,420.6,219.2,420.2,218.3z M182,174.1l3.6,0.2c0.3-0.8,0.7-1.5,1.3-2.1l1.1-1.2
				l1,1.3c0.4,0.5,0.9,0.9,1.5,1.3l8.4-12.4c-1.8,3.2-3.4,6.4-4.8,9.5c-0.9,2.1-1.8,4.2-2.6,6.3l-1-0.4c-0.9-0.4-1.7-0.8-2.3-1.3
				c-0.2,0.4-0.3,0.8-0.3,1.2l-0.2,1.9l-9.3-4.4L182,174.1z M152.9,219.2l-0.6-0.1l-0.6-1.3l-8.5-18.8c-1.2-2.5-0.9-5.5,0.6-7.8
				l10.8-16.1c0.9-1.4,2.7-1.8,4.2-1l24.8,13.4l1.3,9.6l-30.6-10.9c0,0,16.6,9.7,22.8,13.8c-1.5,4.9-5.5,7.2-10.9,5.6l18,9.8
				l-0.8,4.8c-0.5,2.8-3.1,4.6-5.8,4L152.9,219.2z M249,317.6c-0.6-0.1-1.2-0.3-1.8-0.5c-9.2-2.4-19.6-6.5-26.6-14.4l-0.6-0.6
				L220,302l0.4-0.7c-0.3,0.2-0.6,0.4-1,0.6c-1,0.7-2,1.6-2.6,2.5l-1.3,1.8l-1.1-2c-1-1.8-1.7-4.9-1.7-7.3
				c-7.5-6.9-17.8-12.9-29.1-17.2l-1.3-0.5l0.5-1.3c1.4-3.9,2-8.5,1.6-12.6c-0.1-1.1-0.3-2.2-0.5-3.3c-1.9-0.7-3.2-0.6-5.3,0.5
				l-3.8,2l2-3.8c2.9-5.7,4.9-10.5,6.2-15c0.1-0.3,0.2-0.6,0.3-0.9c-0.7,0.8-1.4,1.4-2.1,2c-2.5,2.1-5.1,3.4-7.9,3.8l-4.6,0.8
				c3.1-1.8,10.9-10.3,12.3-14.6c0-0.2,0.1-0.3,0.1-0.5l0.1-0.8c0,0,0,0,0,0v0l0,0c0,0.2,0,0.5-0.1,0.8l0,0.4l0,0.1
				c-0.3,2.7-1.7,6.3-3.7,9.4c1.2-0.7,2.4-1.7,3.6-2.9c1.2-1.3,2.5-2.9,3.7-4.7l3.3-5l-0.8,5.9c-0.1,0.9-0.3,1.9-0.5,2.9
				c-1,5.1-2.9,10.3-5.8,16.5c0.7-0.1,1.3-0.1,1.9,0c0.6,0.1,1.1,0.2,1.7,0.4c0.4,0.1,0.8,0.3,1.2,0.5l0.6,0.3l0.2,0.6
				c0.4,1.4,0.7,3,0.8,4.7c0.4,4-0.1,8.4-1.3,12.3c11.3,4.4,21.7,10.7,29.2,17.7l0.5,0.5l0,0.7c-0.1,1.3,0.1,3,0.6,4.5
				c0.7-0.7,1.6-1.3,2.4-1.9c1-0.6,2-1.1,3.1-1.4l1.5-0.5l0.3,1.5c0,0.1,0,0.2,0,0.3c0.1,0.8,0,1.7-0.2,2.5
				c6.8,7.6,15.4,13.1,24,15.6c1.1,0.3,2.1,0.5,3.1,0.8L249,317.6z M312.2,301.7c-4.9,3.5-10.8,6.8-16.9,9.7
				c-7.6,3.6-15.6,6.7-22.4,8.7c-3.5,4.3-7.5,8.1-12,11.4l-2.9,2.1l0.8-3.5c0.7-3.3,1.2-14.1-2.8-19.6c-0.2-0.2-0.3-0.4-0.5-0.6
				c0.2,0.2,0.3,0.4,0.5,0.6c3.9,4.9,5.5,12.3,5.7,17c0.2-0.1,0.3-0.3,0.5-0.4c3.3-2.7,6.3-5.7,8.9-9l0.3-0.4l0.4-0.1
				c13.3-3.7,31-9.9,40.5-16.1L312.2,301.7z M335.2,263.2c-0.3,0.7-0.7,1.5-1.1,2.2c-9.9,18.7-36.8,25.4-72,26.5
				c-30.8-1.9-52.6-15.4-58.7-26.4c0,0,0-0.1-0.1-0.1c-2-3.7-2.6-8-1.7-12.2l2-9.1c1.4-6.5,5.3-12.2,10.8-15.9l10.1-6.8l-15.1-3.8
				c9.4,0.2,19.1-0.8,29.1-2.8c5.4-2.9,11.1-5.2,17.1-6.4c1-0.4,2.1-0.2,3,0.4l3.3,1.4l9.1-3.3c0.7-0.2,1.5-0.2,2.2,0.1
				c7.1,2.3,13,5.1,18,8.3c8.7,2.2,17.3,3,25.8,3.3l-12,3.3l8.7,2.4c7.2,2,13.3,7,16.6,13.7l4.3,8.9
				C337.3,252,337.5,258,335.2,263.2z M337.2,200.4l-14.8,13.7c-0.9,0.8-2,1.2-3.2,1.1l-19.5-2l22.7-11.9c0.4-0.2,0.7-0.4,1-0.7
				l1.8-1.9c1.3-1.4,1.5-3.5,0.3-5l-5.8-7.9c-1.1-1.5-3.1-2-4.7-1.2l-44.1,19.4c-1,0.4-2.1,0.3-2.9-0.3h0l9.9-7.4
				c-6,2.5-11.9,4.5-17.3,5.2c-4.4-1-11.2-3.9-13.8-5.2l9.9,6.1c0.7,0.4,1.1,1.1,1,1.9l-41.1-11.9c-1.5-0.4-3.1,0.1-4.1,1.3
				l-4.1,5.1c-0.8,1-1,2.2-0.7,3.4c0.2,0.9,0.7,1.6,1.4,2.1l10.2,7.8l-9,1.5c-1.4,0.2-2.9-0.3-3.8-1.5l-7.3-9c-0.8-1-1.1-2.3-1-3.5
				l0.7-4.7c0.2-1,0.7-1.9,1.4-2.6c3.8-3.4,15.4-13.9,18.6-16.7c0.5-0.4,1.2-0.5,1.7-0.2c6.1,3,39.6,20.4,39.6,20.4l45.6-31.5
				c1.4-1.1,3.4-1,4.7,0.2l25.1,24.7c0.6,0.5,1,1.1,1.2,1.8l1.7,4.7C339,197.3,338.5,199.2,337.2,200.4z M334.7,147.5
				c-8.3-4.5-23.4-12.6-30.5-16.1c-0.6-0.3-1.2-0.7-1.7-1.1c0.1,0.2,0.1,0.4,0.2,0.6l-2.4,1.2c-0.7-1.1-2.3-2.5-2.8-2.6
				c-4.8-0.4-12.9-0.4-20.8-0.4c-4.7,0-9.1,0-12.7,0c-0.6,0-1.1,0-1.6,0c-0.8,0-1.8-0.5-2.4-1.2c-0.1,0.1-0.1,0.1-0.2,0.2l-0.8,1.2
				l-1.2-0.9c-2.8-2.1-8.4-3.5-13-2.8c2.1,2,3.2,4.6,2.9,7c-0.3,2.6-2.1,4.6-4.8,5.5l-1.6,0.5l-0.2-1.6c-0.1-0.9-0.3-1.6-0.5-2.1
				c-0.4,0.5-1,0.9-1.5,1.2l0,0c-4.8,2.3-8.9,4-12.4,5.5c-2.4,1-4.6,1.9-6.4,2.8l-1.2,0.6c1.3-1.2,3.1-2.5,5.1-3.8
				c4.6-3,10.2-6.1,13.8-7.6c0.5-0.2,1-0.9,1-1.3l0.2-1.8l1.7,0.7c1.6,0.6,2.3,2.1,2.7,3.6c0.8-0.6,1.4-1.5,1.5-2.5
				c0.2-1.7-0.8-4.2-4-6.1l-2.4-1.4l2.6-1c5.4-2.1,12.9-0.8,17.2,1.8c0.6-0.4,1.3-0.6,2-0.6l1.3-0.1l0.2,1.1
				c0.1,0.1,0.4,0.3,0.6,0.3c0.5,0,1,0,1.6,0c3.6,0.1,8,0.1,12.6,0c8,0,16.2,0,21.1,0.4c0.6,0,1.2,0.4,1.9,0.8
				c0.1-0.7,0.3-1.4,0.7-1.9l2-3.3l0.5,3.9c0.1,0.7,0.9,1.8,2.6,2.7c7.1,3.5,22.2,11.6,30.5,16.1c3.7,2,6.5,5,8.3,8.8l8.8,18.7
				c0.3-0.2,0.5-0.5,0.7-0.7l1.5-1.8l0.8,2.2c0.2,0.5,0.3,1,0.4,1.5l21.8-12.8c3.4-2,7.8-1,9.9,2.4c-0.6-0.9-1.9-1.3-3.4-1.3
				c-1.9,0-4,0.6-5.2,1.3L354,178.5l0-2.4c0-0.2,0-0.4,0-0.6l-0.8,0.4l-1.2,0.8L341.8,155C340.3,151.8,337.8,149.2,334.7,147.5z
				 M347.3,238.8c-1-0.2-2-0.4-3-0.6c2.1-0.7,5.2-0.3,8,0.5c1.4,0.4,2.8,0.8,3.8,1.3c-0.6-1.6-1.7-3.4-3.3-5
				c-0.2-0.2-0.4-0.4-0.7-0.7c0.8,0.4,1.6,0.8,2.2,1.3c3.4,2.5,5.3,6.3,5.1,10.1c-1.5-1.8-3.7-3.4-6.3-4.7c-1.4-0.7-2.9-1.3-4.5-1.8
				C348.3,239.1,347.8,239,347.3,238.8z M364.7,263.7c-2.1,0.8-4.3,1.4-6.5,1.7c-0.7,0.1-1.4,0.2-2.1,0.2c-2.6,2.5-4.4,9.2-4.8,14.5
				c-0.8-5.8,0.1-10.7,1.9-14.7c0.3-0.6,0.6-1.2,0.9-1.8l0.4-0.7l0.8,0c2.2-0.1,4.4-0.4,6.5-1.1c-0.7-0.7-1.4-1.6-2.2-2.5
				c-3.7-4.4-8-10.8-10.5-16.6c0.8,1.2,1.7,2.5,2.7,3.8c4.2,5.7,9.8,12.4,15,16.4L364.7,263.7z M395.9,198.3l-9.4,20.8l-24.4,4.9
				c-3.2,0.7-6.4-1.5-6.9-4.8l-0.6-3.9l18-9.8c-6.8,1.1-11.5-1.4-10.9-5.6c8.1-5.4,22.8-13.8,22.8-13.8L353.8,197l1.3-9.6l24.9-13.4
				c1.4-0.8,3.2-0.3,4.1,1l11.3,16.8C396.7,193.8,396.9,196.2,395.9,198.3z"/>
		</g>
		<g>
			<path class="st0" d="M261.2,216.9l-4.2-4.6c-0.7-0.7-1.9-0.8-2.7-0.3c-3.1,1.8-9.9,5.8-10.5,5.9l8.9-2.9L261.2,216.9z"/>
		</g>
		<g>
			<path class="st0" d="M284,216.6l-10.6-5.8c-0.4-0.2-0.9-0.2-1.3,0l-6.5,5.8l8.3-2.1L284,216.6z"/>
		</g>
		<g>
			<path class="st0" d="M232.9,274.3c0.3-0.2,51.9-2.2,51.9-2.2l-57.9-0.9C226.9,271.2,232.6,274.6,232.9,274.3z"/>
		</g>
	</g>
	<g>
		<g>
			<g>
				<g>
					<path id="Path_266_00000003104209051429617330000012199746152742373308_" class="st0" d="M283.5,91.8c2.6,0.1,4,0.1,6.6,0.2
						c0-2.8-0.1-4.2-0.1-7c3.1,0.1,4.6,0.2,7.6,0.4c1.9,0.1,2.6,1,3.1,2.6c0.6,1.8,0.5,4.3,1.1,4.7c2.6,0.2,3.9,0.4,6.5,0.7
						c0-0.1,0-0.2,0-0.3c-0.8-0.3-0.6-3.1-1.4-5.6c-0.5-1.6-1.6-2.9-3.4-3.7c0,0,0-0.1,0-0.1c2.2-0.7,3.3-2.2,3-4.6
						c-0.5-4.2-4.4-6.5-8.5-6.7c-5.7-0.3-8.5-0.3-14.8-0.5C283.4,79.8,283.5,83.8,283.5,91.8z M289.7,76.6c3.2,0.1,4.7,0.1,7.8,0.3
						c1.7,0.1,2.7,1,2.8,2.4c0.1,1.4-0.8,2.1-2.6,2c-3.1-0.2-4.7-0.3-7.9-0.4C289.8,79.2,289.8,78.3,289.7,76.6z"/>
					<path class="st0" d="M255.8,86.2c-0.4-1.5-1.3-2.6-3.1-3.2c0,0,0-0.1,0-0.1c2.3-1,3.6-2.7,3.7-5c0-4-3.6-5.8-7.8-5.7
						c-5.8,0.2-8.5,0.4-14.6,1.1c-1.2,8.2-1.7,12.4-2.4,20.5c2.6-0.4,3.9-0.6,6.6-0.8c0.2-2.8,0.3-4.2,0.6-7
						c3.1-0.3,4.6-0.4,7.7-0.6c1.9-0.1,2.6,0.6,3,2.2c0.4,1.8,0.1,4.2,0.8,4.6c2.7-0.1,4-0.2,6.6-0.2c0-0.1,0-0.2,0-0.3
						C255.9,91.4,256.4,88.5,255.8,86.2z M247.1,81.2c-3.2,0.2-4.8,0.3-8,0.6c0.2-1.7,0.3-2.6,0.5-4.3c3.2-0.3,4.7-0.4,7.8-0.5
						c1.8-0.1,2.6,0.7,2.6,2C249.9,80.3,248.9,81.1,247.1,81.2z"/>
					<path class="st0" d="M281.6,86c-0.4-1.6-1.4-2.7-3.2-3.4c0,0,0-0.1,0-0.1c2.4-0.9,3.7-2.5,3.6-4.8c-0.1-4.1-4-6-8.5-6
						c-6.3,0-9.6,0.1-15.8,0.2c-0.1,7.9-0.1,11.8-0.1,19.9c2.6-0.1,4-0.1,6.6-0.2c0-2.8,0-4.2,0-7c3.1-0.1,4.7-0.1,7.8-0.1
						c1.9,0,2.7,0.8,3.1,2.3c0.5,1.8,0.2,4.3,0.9,4.7c2.6,0,3.9,0.1,6.5,0.1c0-0.1,0-0.2,0-0.3C281.7,91.3,282.2,88.4,281.6,86z
						 M272.5,80.6c-3.3,0-5,0-8.3,0.1c0-1.7,0-2.5,0-4.2c3.3-0.1,5-0.1,8.4-0.1c1.9,0,2.8,0.8,2.8,2.1
						C275.4,79.8,274.4,80.6,272.5,80.6z"/>
				</g>
				<path id="Path_265_00000077288008718177842010000000125782057908663470_" class="st0" d="M307,75.5c1.1,0.1,1.9-0.6,1.7-1.7
					c-0.2-1.1-1.2-2.1-2.3-2.2c-1.1-0.1-1.8,0.6-1.7,1.8C304.9,74.4,305.9,75.4,307,75.5z M306.9,75.2c-1-0.1-1.7-0.9-1.9-1.9
					c-0.1-1,0.4-1.6,1.4-1.5c0.9,0.1,1.8,0.9,1.9,1.9C308.5,74.7,307.9,75.3,306.9,75.2z M306,74.4c0.2,0,0.3,0,0.5,0.1
					c0-0.3-0.1-0.5-0.1-0.8c0.1,0,0.2,0,0.3,0c0.2,0,0.4,0.2,0.4,0.3c0.1,0.2,0.1,0.5,0.2,0.5c0.2,0,0.3,0,0.5,0.1c0,0,0,0,0,0
					c-0.1,0-0.1-0.3-0.2-0.5c-0.1-0.2-0.2-0.4-0.4-0.4c0,0,0,0,0,0c0.3,0,0.4-0.2,0.3-0.4c-0.1-0.4-0.4-0.6-0.8-0.7
					c-0.4,0-0.6-0.1-1-0.1C305.9,73.2,305.9,73.6,306,74.4z M306.3,72.8c0.2,0,0.2,0,0.4,0c0.2,0,0.3,0.1,0.4,0.3
					c0,0.2-0.1,0.3-0.3,0.2c-0.2,0-0.2,0-0.4,0C306.3,73.1,306.3,73,306.3,72.8z"/>
			</g>
			<path class="st0" d="M269.5,63.7c5.1-8,7.7-11.9,11.9-19.8c-9.3-0.2-14.4-0.2-23.2,0.1C261.8,51.9,264.4,55.8,269.5,63.7z"/>
		</g>
	</g>
</g>
</svg>
