<?xml version="1.0" standalone="no"?>
<!DOCTYPE svg PUBLIC "-//W3C//DTD SVG 20010904//EN"
 "http://www.w3.org/TR/2001/REC-SVG-20010904/DTD/svg10.dtd">
<svg version="1.0" xmlns="http://www.w3.org/2000/svg"
 width="700.000000pt" height="700.000000pt" viewBox="0 0 700.000000 700.000000"
 preserveAspectRatio="xMidYMid meet">
<metadata>
Created by potrace 1.14, written by Peter Selinger 2001-2017
</metadata>
<g transform="translate(0.000000,700.000000) scale(0.100000,-0.100000)"
fill="#000000" stroke="none">
<path d="M1465 5263 c15 -27 39 -68 53 -93 14 -25 56 -99 95 -165 38 -66 79
-136 90 -155 10 -19 61 -107 112 -195 51 -88 103 -178 115 -200 12 -22 61
-105 107 -185 47 -80 101 -174 121 -210 19 -36 40 -71 46 -79 6 -8 29 -46 51
-86 30 -54 320 -557 395 -685 5 -8 90 -157 190 -330 99 -173 185 -322 190
-330 9 -14 199 -344 230 -399 8 -14 27 -46 41 -71 15 -25 36 -61 47 -80 10
-19 40 -70 66 -113 25 -43 46 -80 46 -83 0 -3 10 -19 21 -36 l21 -29 13 23 c6
13 54 95 105 183 51 88 114 196 139 240 25 44 50 88 56 97 5 10 35 61 66 115
31 54 107 186 169 293 63 107 126 218 142 245 16 28 33 57 38 65 11 18 158
274 415 720 340 591 740 1282 766 1325 10 17 25 44 34 60 8 17 23 44 33 60 11
17 34 56 51 88 l33 57 -2062 0 -2062 0 27 -47z"/>
</g>
</svg>
